<?xml version="1.0" encoding="utf-8"?>
<!-- Generator: Adobe Illustrator 21.0.2, SVG Export Plug-In . SVG Version: 6.00 Build 0)  -->
<svg version="1.1" id="Layer_1" xmlns="http://www.w3.org/2000/svg" xmlns:xlink="http://www.w3.org/1999/xlink" x="0px" y="0px"
	 viewBox="0 0 400 400" style="enable-background:new 0 0 400 400;" xml:space="preserve">
<style type="text/css">
	.st0{fill:#2A2A2A;}
	.st1{fill:#2A2A2A;enable-background:new    ;}
	.st2{fill:none;}
</style>
<g>
	<g>
		<path class="st0" d="M100.4,154l-16.8,2.2c-1.1,0.1-2.1-0.6-2.2-1.7l-3.2-24.7c0-0.2-0.4-3.7,0.9-6.5c0.2-0.4,0.3-0.7,0.5-1
			c0.8-1.8,1.3-2.7,1-4.9c-0.3-2,0.2-4.1,0.5-5.5c0.1-0.6,0.3-1.2,0.3-1.4v-0.2c0,0,0-1.4-0.5-2.5c-0.8-1.4-0.2-2.5,0.3-2.9l0.2-0.2
			l8.4-1.1l0.3,0.1c0.5,0.3,1.4,1.2,1,2.8c-0.3,1.1,0.1,2.5,0.1,2.5v0.2c0,0.2,0.4,0.8,0.6,1.3c0.7,1.4,1.6,3.2,1.9,5.2
			c0.3,2.2,0.9,3,2.2,4.5c0.2,0.3,0.5,0.6,0.7,0.9c1.9,2.4,2.5,5.9,2.5,6l3.2,24.8C102.3,152.9,101.5,153.9,100.4,154z M83.2,110.2
			c0,0.5-0.1,1.2-0.3,2c-0.3,1.3-0.7,3.2-0.5,4.9c0.4,2.8-0.2,4.1-1.1,6c-0.1,0.3-0.3,0.6-0.4,1c-1,2.3-0.7,5.4-0.7,5.4l3.2,24.7
			l16.8-2.2L97,127.3c0,0-0.5-3.1-2.1-5c-0.2-0.3-0.5-0.6-0.7-0.8c-1.4-1.7-2.3-2.8-2.6-5.5c-0.2-1.7-1.1-3.4-1.7-4.6
			c-0.4-0.8-0.7-1.4-0.8-1.9c-0.1-0.4-0.5-2-0.1-3.5c0-0.1,0-0.2,0-0.3l-6.7,0.9c0,0.1,0.1,0.2,0.1,0.3
			C83.2,108.1,83.2,109.8,83.2,110.2z"/>
	</g>
	<g>
		<path class="st0" d="M95.2,148.6l-7.9,1c-1.1,0.1-2.1-0.6-2.2-1.7l-2-15.1c-0.1-1.1,0.6-2.1,1.7-2.2l7.9-1
			c1.1-0.1,2.1,0.6,2.2,1.7l2,15.1C97,147.5,96.3,148.5,95.2,148.6z M85.1,132.5l2,15.1l7.9-1l-2-15.1L85.1,132.5z"/>
	</g>
	<g>
		<path class="st0" d="M83.2,125.3c-0.2,0-0.4,0-0.5-0.1c-0.5-0.2-0.7-0.8-0.5-1.3c0.2-0.4,0.3-0.7,0.5-1c0.8-1.8,1.3-2.7,1-4.9
			c-0.1-0.5,0.3-1,0.9-1.1c0.5-0.1,1,0.3,1.1,0.9c0.4,2.8-0.2,4.1-1.1,6c-0.1,0.3-0.3,0.6-0.4,1C83.8,125.1,83.5,125.3,83.2,125.3z"
			/>
	</g>
	<g>
		<path class="st0" d="M84.6,115.9c-0.5,0.1-1-0.3-1.1-0.9c-0.1-0.5,0-0.9,0.1-1.3c0-0.1,0.1-0.3,0.1-0.4c0.1-0.5,0.5-0.9,1.1-0.9
			c0.5,0.1,0.9,0.5,0.9,1.1c0,0.2-0.1,0.4-0.1,0.6c0,0.3-0.1,0.5-0.1,0.7C85.5,115.3,85.2,115.8,84.6,115.9z"/>
	</g>
</g>
<g>
	<g>
		<path class="st0" d="M146.7,52.4l-7.8-3.8c-0.5-0.3-0.7-0.9-0.5-1.4l5.7-11.5c0-0.1,0.9-1.7,2.2-2.5c0.2-0.1,0.3-0.2,0.5-0.3
			c0.9-0.5,1.3-0.8,1.8-1.8c0.5-0.9,1.2-1.7,1.8-2.2c0.2-0.2,0.5-0.5,0.5-0.5v-0.1c0,0,0.4-0.6,0.5-1.2c0.1-0.8,0.7-1.1,1-1.2h0.2
			l3.9,1.9l0.1,0.1c0.2,0.3,0.3,0.9-0.3,1.5c-0.5,0.4-0.7,1.1-0.7,1.1v0.1c0,0.1-0.1,0.5-0.1,0.7c-0.1,0.8-0.2,1.8-0.7,2.8
			s-0.5,1.5-0.3,2.6c0,0.2,0,0.4,0.1,0.6c0.1,1.6-0.6,3.2-0.7,3.3L148,51.9C147.8,52.4,147.2,52.6,146.7,52.4z M151.8,28.8
			c-0.1,0.2-0.4,0.5-0.7,0.8c-0.5,0.5-1.2,1.2-1.6,1.9c-0.6,1.3-1.3,1.7-2.2,2.2c-0.1,0.1-0.3,0.2-0.5,0.3c-1.1,0.7-1.8,2.1-1.8,2.1
			l-5.7,11.5l7.8,3.8l5.7-11.5c0,0,0.7-1.5,0.6-2.7c0-0.2,0-0.4-0.1-0.6c-0.1-1.1-0.2-1.8,0.4-3.1c0.4-0.8,0.5-1.7,0.6-2.4
			c0.1-0.5,0.1-0.8,0.2-1c0.1-0.2,0.4-1,1-1.5l0.1-0.1l-3.1-1.5c0,0,0,0.1,0,0.2C152.4,27.9,151.9,28.6,151.8,28.8z"/>
	</g>
	<g>
		<path class="st0" d="M146,48.6l-3.6-1.8c-0.5-0.3-0.7-0.9-0.5-1.4l3.5-7c0.3-0.5,0.9-0.7,1.4-0.5l3.6,1.8c0.5,0.3,0.7,0.9,0.5,1.4
			l-3.5,7C147.1,48.6,146.5,48.8,146,48.6z M146.2,38.8l-3.5,7l3.6,1.8l3.5-7L146.2,38.8z"/>
	</g>
	<g>
		<path class="st0" d="M147.5,35.2c-0.1,0-0.2-0.1-0.2-0.2c-0.2-0.2-0.1-0.6,0.2-0.7c0.2-0.1,0.3-0.2,0.5-0.3
			c0.9-0.5,1.3-0.8,1.8-1.8c0.1-0.3,0.4-0.4,0.7-0.2c0.3,0.1,0.4,0.4,0.2,0.7c-0.6,1.3-1.3,1.7-2.2,2.2c-0.1,0.1-0.3,0.2-0.5,0.3
			S147.6,35.3,147.5,35.2z"/>
	</g>
	<g>
		<path class="st0" d="M150.8,31.6c-0.3-0.1-0.4-0.4-0.2-0.7c0.1-0.2,0.3-0.4,0.4-0.5c0.1-0.1,0.1-0.1,0.1-0.2
			c0.2-0.2,0.5-0.2,0.7-0.1c0.2,0.2,0.2,0.5,0.1,0.7c-0.1,0.1-0.1,0.1-0.2,0.2c-0.1,0.1-0.2,0.2-0.2,0.3
			C151.3,31.6,151,31.7,150.8,31.6z"/>
	</g>
</g>
<g>
	<path class="st0" d="M132.4,76.6c-2.2-2.6-6.2-3-8.8-0.8c-0.3,0.2-0.3,0.6-0.1,0.9c0.2,0.3,0.6,0.3,0.9,0.1c2.1-1.8,5.2-1.5,7,0.6
		c0.2,0.3,0.6,0.3,0.9,0.1C132.6,77.3,132.6,76.9,132.4,76.6z"/>
	<path class="st0" d="M138.1,82.3c-1.7-1-3.9-1.1-5.7-0.3c-0.3,0.1-0.5,0.5-0.3,0.9c0,0.1,0.1,0.1,0.1,0.2c0.2,0.2,0.5,0.3,0.8,0.2
		c1.4-0.6,3.1-0.6,4.5,0.2c0.3,0.2,0.7,0.1,0.9-0.2C138.5,82.9,138.4,82.5,138.1,82.3z"/>
	<path class="st0" d="M133,71.4c0.9-0.8,2.3-0.7,3.2,0.3c0.2,0.3,0.6,0.3,0.9,0.1c0.3-0.2,0.3-0.6,0.1-0.9c-1.3-1.5-3.5-1.7-5-0.4
		c-0.3,0.2-0.3,0.6-0.1,0.9S132.7,71.6,133,71.4z"/>
	<path class="st0" d="M139.1,92.6c2-1.7,2.7-4.4,1.8-6.9c0.3-0.1,0.6-0.3,0.8-0.5c1.5-1.3,1.6-3.5,0.4-5c-0.2-0.2-0.4-0.5-0.7-0.6
		c1.8-3.1,1.5-7-0.9-9.8s-6.3-3.8-9.7-2.4c-0.1-0.4-0.3-0.7-0.6-1c-1.3-1.5-3.5-1.7-5-0.4c-0.4,0.3-0.7,0.7-0.9,1.2
		c-2.1-0.7-4.4-0.3-6,1.1c-2.6,2.2-2.9,6.2-0.7,8.8c0.9,1.1,2.1,1.7,3.4,2l-8,8.4c-0.3,0.3-0.3,0.8,0,1.1l4.5,5.3
		c0.3,0.3,0.7,0.4,1.1,0.1l10.2-6.9c-0.2,1.7,0.3,3.5,1.5,4.8C132.5,94.4,136.5,94.8,139.1,92.6z M114.4,88l7-7.4
		c0,0.6,0.1,1.1,0.2,1.6L120,84c-0.2,0.2-0.2,0.6,0,0.9c0,0,0,0,0,0.1c0.3,0.2,0.7,0.2,0.9,0l1.2-1.3c0.2,0.4,0.5,0.8,0.8,1.1
		c0.3,0.3,0.6,0.6,0.9,0.8l-1.4,1c-0.3,0.2-0.4,0.6-0.2,0.9c0,0,0,0,0,0.1c0.2,0.2,0.6,0.3,0.9,0.1l1.9-1.3c0.6,0.3,1.2,0.5,1.8,0.5
		l-8.5,5.8L114.4,88z M131.3,91c-1.1-1.3-1.5-3.2-0.9-4.8l0.4-1.3l-1.3,0.5c-2,0.8-4.2,0.2-5.6-1.4c-1.2-1.4-1.5-3.4-0.8-5.1
		l0.3-0.9h-0.9c-1.5,0-2.8-0.7-3.8-1.8c-1.8-2.1-1.5-5.2,0.5-7c1.5-1.3,3.6-1.5,5.3-0.7l0.7,0.3l0.2-0.8c0.1-0.5,0.4-0.9,0.7-1.2
		c0.9-0.8,2.3-0.7,3.2,0.3c0.3,0.3,0.5,0.7,0.5,1.2l0.1,0.9l0.8-0.4c3-1.5,6.6-0.8,8.8,1.8c2.2,2.5,2.3,6.2,0.4,8.9l-0.5,0.7
		l0.8,0.3c0.3,0.1,0.6,0.4,0.9,0.6c0.8,0.9,0.7,2.4-0.2,3.2c-0.3,0.2-0.6,0.4-1,0.5l-0.8,0.2l0.4,0.7c1,2,0.5,4.5-1.2,6
		C136.2,93.3,133.1,93.1,131.3,91z"/>
</g>
<g>
	<path class="st0" d="M94,37.4c-0.2-0.3-0.6-0.6-1-0.7l-2.9-0.9c-3.5-6.4-9.7-8.2-9.9-8.3c-0.3-0.1-6.4-2.1-12.9,1.3l-2.9-0.9
		c-0.5-0.2-1-0.1-1.5,0.1c-0.4,0.2-0.6,0.5-0.7,0.9L61,32.8c-0.1,0.5,0,1,0.3,1.4c0.2,0.2,0.4,0.4,0.6,0.5c-1,2.7-3.8,10.6-6,17.3
		c-1.6,0.2-2.9,1.6-3.1,3.2c-0.2,1.5,0.6,3,1.9,3.7c1.1,0.6,2.4,0.6,3.5,0c4.5,2.9,10.6,4.7,10.8,4.8c0.3,0.1,6.3,2,11.7,2.1
		c0.6,1.1,1.7,1.8,2.9,2c0.1,0,0.3,0,0.4,0c1.4,0,2.7-0.8,3.3-2c0.8-1.5,0.4-3.3-0.8-4.4c1.9-6.8,4.1-14.9,4.8-17.7
		c0.1,0,0.1,0,0.2,0c0.2,0,0.4,0,0.6-0.1c0.5-0.2,0.8-0.5,1-1l1.2-3.9C94.4,38.3,94.3,37.8,94,37.4z M79.6,29.4
		c0.1,0,4.4,1.3,7.5,5.5l-16.9-5.2C75.2,28,79.5,29.4,79.6,29.4z M85.1,62.8c0.5,0.4,0.8,1.3,0.4,2.1c-0.3,0.6-1,1-1.7,0.9
		c-0.6-0.1-1.1-0.4-1.4-1s-0.9-1-1.6-1c-5.1-0.1-11.2-2-11.2-2c-0.1,0-6.1-1.8-10.4-4.6c-0.6-0.4-1.3-0.4-1.9-0.1
		c-0.5,0.3-1.1,0.3-1.7,0c-0.6-0.3-1-1-0.9-1.7c0.1-0.9,0.8-1.4,1.5-1.5s1.3-0.6,1.5-1.2c2.2-6.7,5-14.8,6-17.4l25.6,7.9
		c-0.7,2.7-2.8,10.9-4.8,17.8C84.4,61.6,84.6,62.4,85.1,62.8z M91.3,41.7l-14.2-4.3L63,33l1-3.2l28.3,8.7L91.3,41.7z"/>
	<path class="st0" d="M78.2,47.8c-0.3-0.5-0.9-0.7-1.4-0.4l-3.4,1.8l-1.8-3.4c-0.2-0.4-0.6-0.6-1-0.5c-0.1,0-0.1,0-0.2,0.1
		c-0.1,0-0.1,0-0.2,0.1l0,0L66,47.7c-0.5,0.3-0.7,0.9-0.4,1.4c0.2,0.3,0.5,0.5,0.9,0.5c0.2,0,0.3,0,0.5-0.1l3.4-1.8l1.8,3.4
		c0.2,0.3,0.5,0.5,0.9,0.5c0.2,0,0.3,0,0.5-0.1l0,0l3.4-1.8l1.8,3.4c0.2,0.3,0.5,0.5,0.9,0.5c0.2,0,0.3,0,0.5-0.1
		c0.5-0.3,0.7-0.9,0.4-1.4L78.2,47.8z"/>
</g>
<g>
	<path class="st0" d="M160.6,132.4c-0.4-1.1-1.4-1.8-2.5-1.7c-2.4-4.2-5.3-9-6.3-10.7c0,0,0.1,0,0.1-0.1c0.1-0.1,0.2-0.2,0.2-0.3
		c0.1-0.3,0.1-0.7,0-0.9l-1.3-2.4c-0.2-0.3-0.4-0.5-0.8-0.5c-0.3,0-0.6,0-0.8,0.2l-1.8,1c-4.7-1.4-8.6,0.8-8.7,0.9
		c-0.2,0.1-4,2.1-5.5,6.8l-1.8,1c-0.3,0.2-0.5,0.4-0.6,0.8c-0.1,0.3-0.1,0.5,0.1,0.8l1.3,2.4c0.2,0.3,0.4,0.5,0.8,0.5
		c0.2,0,0.4,0,0.5-0.1c0.8,1.7,3.3,6.8,5.5,11.1c-0.7,0.9-0.6,2.2,0.1,3c0.6,0.8,1.7,1.1,2.7,0.8c0.8-0.3,1.4-0.9,1.7-1.7
		c3.6-0.8,7.3-2.9,7.5-3s4-2.1,6.6-4.7c0.8,0.2,1.7,0.1,2.3-0.5c0.1-0.1,0.1-0.1,0.2-0.2C160.6,134.2,160.9,133.3,160.6,132.4z
		 M139.3,118.8c0,0,2.7-1.5,6.2-1.1l-10.5,5.7C136.5,120.3,139.2,118.9,139.3,118.8z M132.1,126.6l17.6-9.6l1.1,2l-8.8,4.8l-8.8,4.8
		L132.1,126.6z M158.9,134c-0.3,0.3-0.7,0.3-1.1,0.2c-0.4-0.1-0.9,0-1.3,0.3c-2.5,2.4-6.3,4.5-6.3,4.5s-3.8,2.1-7.2,2.8
		c-0.5,0.1-0.8,0.4-0.9,0.9c-0.1,0.4-0.4,0.7-0.8,0.8c-0.4,0.1-0.9,0-1.2-0.4c-0.4-0.5-0.3-1.1,0-1.4c0.3-0.4,0.3-0.9,0.1-1.3
		c-2.2-4.3-4.7-9.4-5.6-11.1l16-8.7c1,1.6,3.9,6.6,6.3,10.7c0.2,0.4,0.7,0.7,1.2,0.6c0.4,0,1,0.2,1.2,0.8
		C159.4,133.2,159.3,133.7,158.9,134z"/>
	<path class="st0" d="M150.7,129.1l-3.1-0.9c-0.4-0.1-0.7,0.1-0.8,0.5l-0.7,2.5l-2.5-0.7c-0.3-0.1-0.5,0-0.7,0.2c0,0,0,0.1-0.1,0.1
		l-0.1,0.1l0,0l-0.9,3.1c-0.1,0.4,0.1,0.7,0.5,0.8c0.2,0.1,0.5,0,0.7-0.2c0.1-0.1,0.1-0.2,0.2-0.3l0.7-2.5l2.5,0.7
		c0.1,0,0.3,0,0.4,0c0.1,0,0.2-0.1,0.3-0.2c0.1-0.1,0.1-0.2,0.2-0.3l0,0l0.7-2.5l2.5,0.7c0.2,0.1,0.5,0,0.7-0.2
		c0.1-0.1,0.1-0.2,0.2-0.3C151.2,129.6,151,129.3,150.7,129.1z"/>
</g>
<path class="st1" d="M174,167.1c0.9-0.5,1.1-1,1.2-1.1c0.1-0.2,0-0.4-0.1-0.6c-0.1-0.1-0.5-0.5-1.5-0.7c0.3-1,0.1-1.5,0-1.6
	c-0.1-0.2-0.3-0.3-0.5-0.3s-0.9,0-2.2,1.1c0,0-0.1,0.1-0.2,0.2c-1.1-1.5-3-2.3-4.9-2c-0.1,0-10.6,2.3-21.4,6.7
	c-0.9,0.4-1.4,1.4-1.2,2.3c0.2,1,0.9,1.7,1.9,1.8c6,0.3,11.8,0.1,16-0.1c0,0,0,0,0.1,0c3.8-0.3,6.3-0.6,6.4-0.6
	c1.9-0.3,3.4-1.7,4-3.5c0.1,0.1,0.2,0.1,0.3,0.1c1.5,0.6,2.2,0.4,2.4,0.3c0.2-0.1,0.3-0.3,0.3-0.5C174.6,168.5,174.6,168,174,167.1z
	 M167.4,170.9c0,0-2.4,0.3-6,0.5c-0.2-0.4-0.6-1.2-0.9-2.5c-0.1-0.3-0.4-0.5-0.7-0.5c-0.3,0.1-0.5,0.4-0.5,0.7l0,0
	c0.2,1,0.5,1.8,0.8,2.3c-4,0.2-9.3,0.4-14.8,0.1c-0.4,0-0.7-0.4-0.8-0.8c-0.1-0.4,0.1-0.8,0.5-1c3.7-1.5,7.4-2.8,10.7-3.8
	c0,0.5-0.1,1.3,0,2.2l0,0c0.1,0.3,0.3,0.5,0.7,0.5c0.3,0,0.6-0.3,0.6-0.7c-0.1-1.2,0-2.1,0-2.5c2-0.6,3.8-1.1,5.3-1.5
	c0,0.6-0.1,1.5,0.1,2.6l0,0c0.1,0.3,0.4,0.6,0.7,0.5c0.3,0,0.6-0.3,0.6-0.7c-0.2-1.4-0.1-2.3,0-2.8c1.6-0.4,2.5-0.6,2.6-0.6
	c2.1-0.4,4.1,1.1,4.5,3.2C170.9,168.6,169.5,170.6,167.4,170.9z M172.3,167.7c0,0-0.2-0.1-0.5-0.3c0-0.4,0-0.8-0.1-1.2
	s-0.2-0.8-0.3-1.1c0.2-0.2,0.4-0.4,0.4-0.4c0.2-0.2,0.4-0.4,0.6-0.5c-0.1,0.2-0.1,0.4-0.3,0.7c-0.1,0.2-0.1,0.4,0,0.6
	c0.1,0.2,0.3,0.3,0.5,0.3c0.3,0,0.6,0.1,0.8,0.1c-0.2,0.1-0.4,0.2-0.7,0.4c-0.2,0.1-0.3,0.2-0.4,0.4c0,0.2,0,0.4,0.1,0.6
	c0.2,0.2,0.4,0.4,0.5,0.6C172.8,167.9,172.6,167.8,172.3,167.7z"/>
<g>
	<path class="st0" d="M32.3,105.1c0-0.1-0.1-0.3-0.1-0.4c-0.1-0.2-0.2-0.4-0.3-0.6l0,0l0,0l0,0l0,0c-1.2-2.5-3.9-4-4.1-4.1
		c-7.4-3.8-9.6-0.5-9.8-0.1c-0.2,0.3-1.3,2.3,0.9,5.3l0,0c0.8,1,1.9,2.2,3.6,3.4c0.1,0.1,2.7,1.8,5.5,1.8l0,0l0,0l0,0l0,0
		c0.2,0,0.5,0,0.7,0c1.3-0.2,2.4-0.9,3.1-2C32.4,107.3,32.6,106.2,32.3,105.1z M30.8,107.7c-0.5,0.8-1.3,1.3-2.2,1.4
		c-0.2,0-0.4,0-0.5,0s-0.1,0-0.2,0c0.1-0.1,0.2-0.2,0.3-0.3c0.2-0.2,0.2-0.4,0.2-0.6c0-0.1-0.1-0.2-0.2-0.3c-0.2-0.2-0.6-0.2-0.8,0
		c-0.5,0.5-1.2,0.8-1.2,0.8l0,0c-1.6-0.5-2.8-1.3-2.8-1.3c-1.3-1-2.2-1.8-2.9-2.6c0.3-0.2,0.7-0.5,1.1-0.8c0.1-0.2,0.2-0.4,0.1-0.5
		c0-0.1-0.1-0.2-0.2-0.3c-0.2-0.2-0.6-0.2-0.8,0c-0.3,0.3-0.7,0.6-0.9,0.7c-1.4-2.2-0.6-3.5-0.6-3.5v-0.1c0,0,1.7-2.8,8.2,0.6
		c0,0,0.5,0.3,1.2,0.9c0,0.2-0.1,0.5-0.2,0.9c-0.1,0.3,0,0.7,0.3,0.8c0.3,0.1,0.7,0,0.8-0.3c0.1-0.1,0.1-0.3,0.1-0.4
		c0.5,0.5,1,1.1,1.4,1.8c0.1,0.2,0.1,0.3,0.2,0.5C31.4,105.9,31.2,106.9,30.8,107.7z"/>
	<path class="st0" d="M25.7,103.4c0,0,0.3-0.4,0.7-1.2c0.1-0.1,0.1-0.3,0-0.4c0-0.2-0.2-0.3-0.3-0.4c-0.3-0.1-0.7,0-0.8,0.3
		c-0.3,0.7-0.6,1-0.6,1c-0.2,0.3-0.1,0.6,0.1,0.8C25.2,103.7,25.5,103.6,25.7,103.4z"/>
	<path class="st0" d="M26.2,105.4c-0.3-0.2-0.6-0.1-0.8,0.1c-0.3,0.5-0.7,0.8-0.7,0.8c-0.3,0.2-0.3,0.6-0.1,0.8
		c0.2,0.3,0.6,0.3,0.8,0.1c0,0,0.5-0.4,0.9-1c0.1-0.1,0.1-0.3,0.1-0.5C26.4,105.6,26.3,105.5,26.2,105.4z"/>
</g>
<path class="st1" d="M178.9,69.5c-0.8-10.3-5.7-10.5-6.3-10.5s-5.5,0.2-6.3,10.5c0,0.2-0.1,4.1,1.7,7c0.1,0.1,0.2,0.2,0.3,0.3
	c0,0.2,0.1,0.3,0.2,0.4c1,1.2,2.5,1.9,4.1,1.9s3.1-0.7,4.1-1.9c0.1-0.1,0.1-0.3,0.2-0.4c0.1-0.1,0.3-0.1,0.3-0.3
	C179.1,73.6,179,69.7,178.9,69.5z M172.6,77.7c-1.2,0-2.2-0.5-3-1.4c-0.1-0.1-0.2-0.2-0.3-0.2c0-0.1,0-0.2-0.1-0.3
	c-1.6-2.5-1.5-6.1-1.5-6.1c0.7-9.2,4.7-9.1,4.8-9.1h0.1l0,0c0,0,4-0.1,4.8,9.1c0,0,0.1,3.6-1.5,6.2c-0.1,0.1-0.1,0.2-0.1,0.3
	c-0.1,0-0.2,0.1-0.3,0.2C174.9,77.2,173.8,77.7,172.6,77.7z"/>
<path class="st1" d="M169.1,76.8c-0.2-0.2-0.3-0.4-0.4-0.6C168.8,76.4,168.9,76.6,169.1,76.8z"/>
<path class="st1" d="M176.6,76.1c-0.1,0.2-0.3,0.4-0.4,0.6C176.4,76.6,176.5,76.4,176.6,76.1z"/>
<circle class="st1" cx="172.8" cy="74.5" r="0.4"/>
<circle class="st1" cx="175" cy="71.9" r="0.9"/>
<circle class="st1" cx="173.4" cy="64.4" r="0.6"/>
<circle class="st1" cx="171.3" cy="67.4" r="0.6"/>
<g>
	<polygon class="st0" points="53.5,93.3 47.8,90.2 48.3,89.1 53,91.6 55.7,86.5 60.9,89.2 63.6,84.2 68.8,86.8 71.5,81.8 76.7,84.4 
		79.2,79.9 80.3,80.5 77.2,86.1 72.1,83.4 69.3,88.5 64.2,85.8 61.4,90.9 56.3,88.2 	"/>
</g>
<g>
	<polygon class="st0" points="123.1,30.4 124.9,33.9 124.2,34.3 122.8,31.4 119.6,33 118,29.9 114.8,31.5 113.1,28.3 110,30 
		108.3,26.8 105.5,28.2 105.2,27.6 108.7,25.8 110.3,28.9 113.5,27.3 115.1,30.5 118.3,28.8 120,32 	"/>
</g>
<g>
	<polygon class="st0" points="182.7,39.1 179.2,44.5 178.2,43.9 181,39.5 176.2,36.5 179.2,31.6 174.4,28.6 177.4,23.7 172.6,20.7 
		175.6,15.9 171.3,13.2 172,12.1 177.3,15.5 174.3,20.3 179.1,23.3 176.1,28.2 180.9,31.2 177.9,36.1 	"/>
</g>
<g>
	<polygon class="st0" points="39.7,147.5 34.4,149.5 34,148.5 38.3,146.9 36.5,142.3 41.2,140.4 39.5,135.8 44.2,134 42.4,129.3 
		47.1,127.5 45.6,123.4 46.6,123 48.5,128.1 43.8,129.9 45.6,134.6 40.9,136.4 42.6,141.1 37.9,142.9 	"/>
</g>
<g>
	<polygon class="st0" points="104.6,183.5 99.9,181.7 100.2,180.8 104.1,182.3 105.7,178 110,179.6 111.6,175.4 115.9,177 
		117.5,172.8 121.8,174.4 123.3,170.6 124.2,170.9 122.4,175.6 118.1,174 116.5,178.3 112.2,176.7 110.6,180.9 106.3,179.3 	"/>
</g>
<path class="st2" d="M38.7,191.3c0-0.9,0-1.7,0.2-2.5l-2.9,2.1l1.5,1.4L38.7,191.3z"/>
<path class="st2" d="M47.2,201.1l0.7,0.6c0.1-0.3,0.2-0.7,0.3-1L47.2,201.1z"/>
<path class="st2" d="M61.1,210.5c3.1-1.7,4.6-5.3,3.7-8.7l-0.3-1.2h1.3c0.6,0,1.1-0.2,1.6-0.4c1.7-0.9,2.3-3,1.4-4.7
	c-0.3-0.5-0.7-0.9-1.1-1.2l-1.1-0.7l0.9-0.9c3.8-3.5,4.7-9.1,2.2-13.6c-2.5-4.6-7.8-6.8-12.8-5.3l-1.4,0.4l0.1-1.4
	c0.1-0.7-0.1-1.4-0.4-1.9c-0.9-1.7-3-2.3-4.7-1.4c-0.6,0.4-1.1,0.9-1.5,1.6l-0.5,1.1l-1-0.7c-2.4-1.8-5.7-2-8.3-0.6
	c-3.7,2.1-5.1,6.7-3,10.5c1.1,2,3,3.4,5.2,3.8l1.4,0.3l-0.8,1.2c-1.6,2.4-1.7,5.4-0.3,8c1.6,2.9,4.8,4.4,8.1,3.9l2.1-0.4l-1.1,1.9
	c-0.6,1.1-1,2.3-1,3.5l8.7,8C59.3,211.2,60.2,211,61.1,210.5z M56.4,187.5c-0.5,0.3-1.1,0.1-1.4-0.4c-2.1-3.7-6.7-5.1-10.5-3
	c-0.5,0.3-1.1,0.1-1.4-0.4c-0.3-0.5-0.1-1.1,0.4-1.4c4.7-2.6,10.6-0.9,13.2,3.8C57.1,186.6,56.9,187.2,56.4,187.5z M65.4,180.1
	c-0.5,0.3-1.1,0.1-1.4-0.4c-0.9-1.7-3-2.3-4.7-1.4c-0.5,0.3-1.1,0.1-1.4-0.4c-0.3-0.5-0.1-1.1,0.4-1.4c2.6-1.5,6-0.5,7.4,2.1
	C66.1,179.2,65.9,179.8,65.4,180.1z M62.4,197.9c-1.8-1.6-4.4-2.2-6.8-1.7c-0.4,0.1-0.9-0.1-1.1-0.5c0-0.1-0.1-0.2-0.1-0.3
	c-0.1-0.5,0.2-1.1,0.8-1.2c3-0.7,6.2,0.1,8.5,2.1c0.4,0.4,0.5,1,0.1,1.4C63.4,198.3,62.8,198.3,62.4,197.9z"/>
<path class="st2" d="M39.1,193.8c0-0.1-0.1-0.2-0.1-0.3l-0.1,0.1L39.1,193.8z"/>
<path class="st1" d="M56.8,186.1c-2.6-4.7-8.5-6.4-13.2-3.8c-0.5,0.3-0.7,0.9-0.4,1.4s0.9,0.7,1.4,0.4c3.7-2.1,8.4-0.7,10.5,3
	c0.3,0.5,0.9,0.7,1.4,0.4C56.9,187.2,57.1,186.6,56.8,186.1z"/>
<path class="st1" d="M63.7,196.4c-2.3-2-5.5-2.8-8.5-2.1c-0.5,0.1-0.9,0.7-0.8,1.2c0,0.1,0.1,0.2,0.1,0.3c0.2,0.4,0.7,0.6,1.1,0.5
	c2.4-0.5,4.9,0.1,6.8,1.7c0.4,0.4,1,0.3,1.4-0.1C64.2,197.4,64.1,196.8,63.7,196.4z"/>
<path class="st1" d="M65.8,178.7c-1.5-2.6-4.8-3.6-7.4-2.1c-0.5,0.3-0.7,0.9-0.4,1.4s0.9,0.7,1.4,0.4c1.7-0.9,3.8-0.3,4.7,1.4
	c0.3,0.5,0.9,0.7,1.4,0.4C65.9,179.8,66.1,179.2,65.8,178.7z"/>
<path class="st1" d="M66.9,202.4c0.5-0.1,1-0.3,1.4-0.5c2.6-1.5,3.6-4.8,2.1-7.4c-0.2-0.4-0.5-0.8-0.9-1.2
	c3.8-4.1,4.5-10.2,1.8-15.2c-2.8-5-8.4-7.6-13.9-6.6c-0.1-0.6-0.3-1.2-0.6-1.7c-1.5-2.6-4.8-3.6-7.4-2.1c-0.7,0.4-1.3,0.9-1.7,1.5
	c-2.9-1.7-6.6-1.8-9.6-0.1c-4.7,2.6-6.4,8.5-3.8,13.2c1,1.9,2.6,3.3,4.5,4.1l-4.5,3.1l1.5,1.4l2.9-2.1c-0.2,0.8-0.2,1.7-0.2,2.5
	l-1.2,0.9l1.5,1.4l0.1-0.1c0,0.1,0.1,0.2,0.1,0.3l3,2.7l1.2,1.1l2.2,2l0.6,0.6l1,0.9l1-0.4c-0.1,0.3-0.2,0.7-0.3,1l1.8,1.6
	c0.1-1.2,0.4-2.4,1-3.5l1.1-1.9l-2.1,0.4c-3.2,0.6-6.5-1-8.1-3.9c-1.4-2.5-1.3-5.6,0.3-8l0.8-1.2l-1.4-0.3c-2.2-0.5-4.1-1.8-5.2-3.8
	c-2.1-3.7-0.7-8.4,3-10.5c2.6-1.5,5.9-1.2,8.3,0.6l1,0.7l0.5-1.1c0.3-0.7,0.8-1.2,1.5-1.6c1.7-0.9,3.8-0.3,4.7,1.4
	c0.3,0.6,0.5,1.3,0.4,1.9l-0.1,1.4l1.4-0.4c5-1.4,10.3,0.7,12.8,5.3c2.5,4.5,1.6,10.1-2.2,13.6l-0.9,0.9l1.1,0.7
	c0.5,0.3,0.9,0.7,1.1,1.2c0.9,1.7,0.3,3.8-1.4,4.7c-0.5,0.3-1.1,0.4-1.6,0.4h-1.3l0.3,1.2c0.9,3.4-0.6,7-3.7,8.7
	c-0.8,0.5-1.7,0.8-2.7,0.9l1.8,1.6c0.6-0.2,1.2-0.4,1.8-0.8C65.6,210.3,67.5,206.3,66.9,202.4z"/>
<polygon class="st1" points="139.8,198.4 145.3,198.9 145.9,193.5 151.4,194.1 152.1,188.1 150.9,188 150.4,192.8 144.9,192.2 
	144.3,197.6 138.8,197.1 138.5,200 139.6,200 "/>
<g>
	<path class="st0" d="M69.3,0c-2,2.4-5.3,3.4-8.4,2.4c-1.4-0.5-2.5-1.3-3.4-2.4h-2.4c1.2,2,3,3.5,5.2,4.3c4.4,1.5,9.2-0.4,11.5-4.3
		H69.3z"/>
	<path class="st0" d="M51.9,0h-3h-1.6h-4.1c0.5,0.3,1.1,0.6,1.7,0.8c0.6,0.2,1.2,0.3,1.8,0.4l-1.1,2.5c-0.2,0.5,0,1.1,0.5,1.3h0.1
		c0.5,0.2,1-0.1,1.2-0.5l1.5-3.3c1-0.1,1.9-0.3,2.8-0.7L45,15l-8.8-3l2.7-12h-2l-2.7,12.2c-0.2,0.6,0.2,1.3,0.8,1.5l10,3.4
		c0.6,0.2,1.3-0.1,1.5-0.7L54.1,0h-1.3H51.9z"/>
	<path class="st0" d="M41.1,3.3L41.1,3.3c0.6,0.1,1.2-0.2,1.3-0.8L43,0h-2l-0.5,2.1C40.3,2.6,40.6,3.1,41.1,3.3z"/>
</g>
<polygon class="st1" points="132.7,1.9 132.1,7.3 127.1,6.7 127,7.9 133.1,8.6 133.7,3.2 139.2,3.7 139.6,0 138.5,0 138.2,2.5 "/>
<path class="st2" d="M2,25.6c0.5-0.4,1.3-0.4,1.7,0.1s0.4,1.2,0,1.6l0,0C2.2,28.7,1,29.6,0,30.2v0.5c2.2,1.8,4.8,4,7.9,6.4
	c0.7-0.4,2.1-1.2,3.9-2.7c0.5-0.4,1.3-0.4,1.7,0.1s0.4,1.2-0.1,1.6c0,0,0,0-0.1,0.1c-1.4,1.2-2.5,2-3.4,2.5
	c5.2,4,11.3,8.3,17.8,12.5c0.6,0.4,1.5,0.2,2-0.3s0.7-1.4,0.3-2.1c-5.6-8.9-11.7-17.1-16.6-23.1c-0.6,1-1.5,2.3-2.8,3.8
	c0,0,0,0-0.1,0.1c-0.4,0.4-1.2,0.5-1.6,0c-0.5-0.4-0.5-1.2-0.1-1.7c1.7-1.9,2.6-3.4,3-4.2C7.4,18.3,4.4,15,4.3,15
	c-1.2-1.2-2.8-1.9-4.4-2.1v14.5C0.6,26.8,1.3,26.3,2,25.6z"/>
<path class="st1" d="M3.7,27.4c0.4-0.4,0.5-1.2,0-1.6c-0.4-0.5-1.2-0.5-1.7-0.1c-0.7,0.7-1.4,1.2-2,1.7v2.9
	C1,29.6,2.2,28.7,3.7,27.4C3.6,27.4,3.7,27.4,3.7,27.4z"/>
<path class="st1" d="M32.2,47.4c-6.2-9.8-12.9-18.7-18-24.9l0,0c-4.7-5.7-7.9-9.2-8-9.3c-1.7-1.7-3.9-2.7-6.2-2.8v2.4
	c1.6,0.2,3.2,0.9,4.4,2.1c0.1,0.1,3.1,3.4,7.5,8.7c-0.4,0.8-1.3,2.3-3,4.2C8.5,28.3,8.5,29,9,29.5c0.5,0.4,1.2,0.4,1.6,0
	c0,0,0,0,0.1-0.1c1.4-1.5,2.3-2.8,2.8-3.8c4.9,6,11,14.2,16.6,23.1c0.4,0.7,0.3,1.5-0.3,2.1s-1.4,0.7-2,0.3
	C21.2,47,15.1,42.6,10,38.6c0.9-0.5,2-1.3,3.4-2.5c0,0,0,0,0.1-0.1c0.4-0.4,0.5-1.1,0.1-1.6s-1.2-0.6-1.7-0.1
	c-1.9,1.6-3.3,2.4-4,2.7c-3.1-2.4-5.7-4.6-7.9-6.4v3.1C6.3,39,15.8,46.4,26.6,53.1c1.6,0.9,3.7,0.6,5-0.7
	C32.9,51.1,33.1,49.1,32.2,47.4z"/>
<polygon class="st1" points="2,92.6 2.3,84 11,84.2 11.2,75.6 19.9,75.8 20.2,66.3 18.4,66.3 18.1,73.9 9.4,73.7 9.2,82.3 0.5,82.1 
	0.2,90.7 0,90.7 0,92.6 "/>
<path class="st1" d="M210.6,36.2c0.1,0,0.1-0.1,0.2-0.1v-1.8c-0.6,0.5-1.1,0.7-1.4,0.9c-1.5-1.3-2.3-2-2.3-2.1
	c-1.4-1.4-1.7-3.6-0.8-5.4v-0.1c0.2-0.4,0.5-0.8,0.8-1.1c0.3-0.3,0.7-0.6,1.1-0.8h0.1c0.8-0.4,1.7-0.6,2.6-0.5v-1.5
	c-0.8-0.1-1.6,0-2.3,0.3c0-0.2,0-0.3-0.1-0.3c-0.4-1.9-1.1-2.4-1.3-2.6c-0.2-0.1-0.5-0.1-0.7,0s-0.7,0.5-1.1,1.6
	c-1.1-0.5-1.7-0.4-1.9-0.4c-0.2,0.1-0.4,0.3-0.5,0.5s-0.2,0.8,0.4,1.9c-1.2,0.4-1.5,0.9-1.6,1.1s-0.1,0.5,0,0.7s0.6,0.9,2.6,1.3
	c0,0,0.1,0,0.3,0c-0.6,2.1-0.1,4.5,1.5,6.1c0,0,1.8,1.7,4.8,4.1v-1.9C210.8,36.3,210.7,36.3,210.6,36.2z M204.5,26.6
	c-0.4-0.1-0.7-0.2-0.9-0.3c0.2-0.1,0.5-0.2,0.9-0.3c0.2-0.1,0.4-0.2,0.5-0.4c0.1-0.2,0.1-0.5-0.1-0.7c-0.2-0.3-0.4-0.6-0.5-0.8
	c0.2,0.1,0.5,0.2,0.8,0.5c0.2,0.1,0.5,0.2,0.7,0.1s0.4-0.3,0.4-0.5c0.1-0.4,0.2-0.7,0.3-0.9c0.1,0.2,0.2,0.5,0.3,0.9
	c0,0,0.1,0.3,0.1,0.7c-0.4,0.2-0.7,0.5-1.1,0.9c-0.3,0.3-0.6,0.7-0.9,1.1C204.8,26.6,204.5,26.6,204.5,26.6z"/>
<polygon class="st1" points="191.3,99.1 183.4,98.8 183.4,100.7 193.1,101 193.3,92.4 200,92.6 200,90.7 191.5,90.5 "/>
<path class="st2" d="M194.6,120c0.5,0.3,0.7,0.9,0.4,1.4c-0.1,0.2-0.2,0.3-0.4,0.4c-0.3,0.2-0.6,0.2-1,0c-0.8-0.4-1.4-0.9-1.8-1.4
	c-1,1.4-2.1,3.3-3.1,5.8c0,0-0.8,2.4-0.9,5.1l0,0c0,0,0.9,1.1,1.8,1.7c0.5,0.3,0.6,0.9,0.3,1.4c-0.1,0.2-0.2,0.3-0.4,0.4
	c-0.3,0.2-0.7,0.2-1,0c-0.2-0.1-0.4-0.2-0.6-0.4c0,0.1,0,0.2,0.1,0.3c0.1,0.3,0.2,0.6,0.3,0.9c0.6,1.4,1.8,2.5,3.3,3
	s3.1,0.3,4.4-0.6c0.2-0.2,0.5-0.3,0.7-0.5c1-0.9,1.8-1.9,2.4-3c-0.2,0-0.5,0-0.7-0.1c-0.5-0.1-0.9-0.6-0.9-1.1
	c0.1-0.5,0.6-0.9,1.1-0.9c0.6,0.1,1.2,0.1,1.5,0c0.6-1.3,0.9-2.3,0.9-2.4c0.1-0.3,0.1-0.6,0.2-0.9l-6.2-12c-0.6,0.4-1.3,0.9-2,1.6
	C193.4,119.2,194,119.6,194.6,120z M193.5,130.2c-0.1,0.2-0.3,0.4-0.5,0.5s-0.5,0.2-0.8,0c-1.2-0.5-2-1-2-1.1
	c-0.4-0.3-0.5-1-0.2-1.4c0.3-0.4,1-0.5,1.4-0.2c0,0,0.6,0.4,1.5,0.8C193.4,129.1,193.7,129.7,193.5,130.2z M200.1,128.4
	c-0.1,0.3-0.3,0.6-0.5,0.7c-0.2,0.1-0.4,0.1-0.7,0.1c-1.5-0.3-2.2-0.6-2.3-0.6c-0.5-0.2-0.8-0.8-0.5-1.3c0.2-0.5,0.8-0.8,1.3-0.6
	c0,0,0.6,0.2,1.9,0.5C199.8,127.3,200.2,127.8,200.1,128.4z"/>
<path class="st1" d="M201.2,130.1c0,0-0.3,1-0.9,2.4c-0.4,0-0.9,0-1.5,0c-0.5-0.1-1.1,0.3-1.1,0.9c-0.1,0.5,0.3,1.1,0.9,1.1
	c0.3,0,0.5,0.1,0.7,0.1c-0.6,1.1-1.4,2.1-2.4,3c-0.2,0.2-0.5,0.4-0.7,0.5c-1.3,0.8-2.9,1.1-4.4,0.6s-2.7-1.6-3.3-3
	c-0.1-0.3-0.2-0.6-0.3-0.9c0-0.1,0-0.2-0.1-0.3c0.2,0.1,0.4,0.3,0.6,0.4c0.3,0.2,0.7,0.2,1,0c0.2-0.1,0.3-0.2,0.4-0.4
	c0.3-0.5,0.1-1.1-0.3-1.4c-0.9-0.6-1.8-1.7-1.8-1.7l0,0c0.1-2.8,0.9-5.1,0.9-5.1c1-2.5,2.1-4.4,3.1-5.8c0.4,0.4,1,1,1.8,1.4
	c0.3,0.2,0.7,0.2,1,0c0.2-0.1,0.3-0.2,0.4-0.4c0.3-0.5,0.1-1.1-0.4-1.4c-0.7-0.4-1.2-0.8-1.5-1.2c0.7-0.7,1.4-1.3,2-1.6l-0.9-1.8
	c-1,0.6-2.1,1.5-3.2,2.8l0,0c-1.4,1.7-2.7,4-4.1,7.2c-0.1,0.2-1.8,5.2-0.7,9.7l0,0l0,0l0,0l0,0c0.1,0.4,0.2,0.7,0.3,1.1
	c0.8,2,2.5,3.5,4.5,4.2c1.8,0.6,3.8,0.4,5.5-0.5c0.2-0.1,0.4-0.2,0.6-0.3c0.3-0.2,0.6-0.4,0.9-0.7l0,0l0,0l0,0l0,0
	c2.5-2.2,4-5.4,4.6-7.1l-1.3-2.6C201.3,129.5,201.2,129.8,201.2,130.1z"/>
<path class="st1" d="M197.4,126.7c-0.5-0.2-1.1,0-1.3,0.6c-0.2,0.5,0,1.1,0.5,1.3c0.1,0,0.8,0.3,2.3,0.6c0.2,0,0.5,0,0.7-0.1
	c0.3-0.1,0.5-0.4,0.5-0.7c0.1-0.5-0.2-1.1-0.8-1.2C198,126.9,197.4,126.7,197.4,126.7z"/>
<path class="st1" d="M191.4,128.1c-0.4-0.3-1.1-0.2-1.4,0.2c-0.3,0.4-0.2,1.1,0.2,1.4c0,0,0.8,0.6,2,1.1c0.3,0.1,0.6,0.1,0.8,0
	s0.4-0.3,0.5-0.5c0.2-0.5-0.1-1.1-0.6-1.3C192,128.6,191.4,128.1,191.4,128.1z"/>
<polygon class="st1" points="196.4,178.9 203.1,177.8 202.1,171.2 208.8,170.1 207.8,163.6 213.8,162.7 213.6,161.2 206.1,162.4 
	207.1,169 200.4,170 201.4,176.6 194.8,177.7 195.1,179.9 196.6,179.7 "/>
<path class="st1" d="M0.9,134c9-10.6,4.6-15.5,4-16c-0.3-0.3-1.9-1.8-4.9-1.6v2c2.4-0.2,3.4,0.9,3.4,0.9l0.1,0.1
	c0,0,3.7,3.6-3.5,12.5v2.9C0.5,134.4,0.9,134,0.9,134z"/>
<polygon class="st1" points="5,173.3 12.4,172.8 12.3,171.4 6.3,171.8 5.8,165 0,165.4 0,166.8 4.5,166.6 "/>
<g>
	<g>
		<path class="st0" d="M283,140.5l-10-7.7c-0.7-0.5-0.8-1.4-0.3-2.1l11.4-14.7c0.1-0.1,1.7-2.1,3.9-3c0.3-0.1,0.5-0.2,0.8-0.3
			c1.4-0.5,2.1-0.8,3.1-2.1c0.9-1.2,2.2-2,3.2-2.7c0.4-0.2,0.8-0.5,0.9-0.6l0.1-0.1c0,0,0.8-0.7,1-1.6c0.3-1.2,1.3-1.4,1.7-1.4h0.2
			l5,3.9l0.1,0.2c0.1,0.4,0.1,1.4-0.9,2c-0.8,0.4-1.3,1.4-1.3,1.4l-0.1,0.1c-0.1,0.1-0.2,0.6-0.4,1c-0.3,1.1-0.8,2.6-1.8,3.8
			c-1,1.3-1.1,2.1-1.2,3.5c0,0.3-0.1,0.5-0.1,0.8c-0.3,2.3-1.8,4.4-1.9,4.5L285,140.2C284.6,140.9,283.6,141,283,140.5z
			 M297.1,108.3c-0.2,0.3-0.7,0.6-1.2,0.9c-0.9,0.6-2.1,1.3-2.8,2.3c-1.3,1.7-2.3,2-3.8,2.6c-0.2,0.1-0.5,0.2-0.8,0.3
			c-1.7,0.7-3.2,2.5-3.2,2.5l-11.4,14.7l10,7.7l11.4-14.7c0,0,1.4-1.9,1.6-3.7c0-0.3,0.1-0.6,0.1-0.8c0.2-1.6,0.3-2.7,1.5-4.3
			c0.8-1,1.2-2.3,1.5-3.3c0.2-0.6,0.4-1.1,0.6-1.4c0.1-0.2,0.8-1.3,1.8-1.9c0.1,0,0.1-0.1,0.2-0.1l-4-3.1c0,0.1-0.1,0.1-0.1,0.2
			C298.1,107.2,297.3,108.1,297.1,108.3z"/>
	</g>
	<g>
		<path class="st0" d="M283.1,134.9l-4.7-3.6c-0.7-0.5-0.8-1.4-0.3-2.1l6.9-9c0.5-0.7,1.4-0.8,2.1-0.3l4.7,3.6
			c0.7,0.5,0.8,1.4,0.3,2.1l-6.9,9C284.7,135.3,283.7,135.4,283.1,134.9z M286.2,121.1l-6.9,9l4.7,3.6l6.9-9L286.2,121.1z"/>
	</g>
	<g>
		<path class="st0" d="M289,116.3c-0.1-0.1-0.2-0.2-0.2-0.3c-0.1-0.4,0-0.8,0.4-1c0.3-0.1,0.5-0.2,0.8-0.3c1.4-0.5,2.1-0.8,3.1-2.1
			c0.3-0.3,0.7-0.4,1-0.1s0.4,0.7,0.1,1c-1.3,1.7-2.3,2-3.8,2.6c-0.2,0.1-0.5,0.2-0.8,0.3C289.5,116.5,289.2,116.5,289,116.3z"/>
	</g>
	<g>
		<path class="st0" d="M294.8,112.1c-0.3-0.3-0.4-0.7-0.1-1c0.2-0.3,0.5-0.5,0.7-0.6c0.1-0.1,0.2-0.1,0.3-0.2c0.3-0.3,0.8-0.2,1,0.1
			c0.3,0.3,0.2,0.8-0.1,1c-0.1,0.1-0.2,0.2-0.4,0.3c-0.2,0.1-0.3,0.2-0.4,0.3C295.6,112.3,295.1,112.3,294.8,112.1z"/>
	</g>
</g>
<g>
	<g>
		<path class="st0" d="M350.1,52.4l-8.5-1.8c-0.6-0.1-0.9-0.7-0.8-1.2l2.7-12.5c0-0.1,0.4-1.8,1.5-3c0.1-0.1,0.3-0.3,0.4-0.4
			c0.7-0.7,1.1-1.1,1.3-2.2c0.2-1,0.8-1.9,1.2-2.6c0.2-0.2,0.3-0.6,0.4-0.7v-0.1c0,0,0.3-0.7,0.2-1.3c-0.1-0.8,0.4-1.3,0.6-1.4
			l0.1-0.1l4.3,0.9l0.1,0.1c0.2,0.2,0.5,0.8,0,1.5c-0.3,0.5-0.4,1.2-0.4,1.2v0.1c0,0.1,0,0.5,0.1,0.7c0.1,0.8,0.2,1.8,0,2.9
			c-0.2,1.1-0.1,1.6,0.3,2.6c0.1,0.2,0.1,0.3,0.2,0.5c0.5,1.5,0.2,3.3,0.2,3.3l-2.7,12.5C351.2,52.2,350.7,52.5,350.1,52.4z
			 M349.3,28.3c-0.1,0.2-0.2,0.5-0.5,0.9c-0.4,0.6-0.9,1.4-1.1,2.3c-0.3,1.4-0.8,1.9-1.6,2.7c-0.1,0.1-0.2,0.3-0.4,0.4
			c-0.9,0.9-1.3,2.5-1.3,2.5l-2.7,12.5l8.5,1.8l2.7-12.5c0,0,0.3-1.6-0.1-2.8c-0.1-0.2-0.1-0.4-0.2-0.5c-0.4-1-0.6-1.7-0.3-3.1
			c0.2-0.8,0.1-1.8,0-2.5c-0.1-0.5-0.1-0.8-0.1-1.1c0-0.2,0.1-1,0.5-1.7l0.1-0.1l-3.4-0.7c0,0,0,0.1,0,0.2
			C349.6,27.3,349.3,28.1,349.3,28.3z"/>
	</g>
	<g>
		<path class="st0" d="M348.5,48.9l-4-0.8c-0.6-0.1-0.9-0.7-0.8-1.2l1.6-7.6c0.1-0.6,0.7-0.9,1.2-0.8l4,0.8c0.6,0.1,0.9,0.7,0.8,1.2
			l-1.6,7.6C349.6,48.7,349,49,348.5,48.9z M346.4,39.4l-1.6,7.6l4,0.8l1.6-7.6L346.4,39.4z"/>
	</g>
	<g>
		<path class="st0" d="M346.7,35.6c-0.1,0-0.2-0.1-0.2-0.1c-0.2-0.2-0.2-0.5,0-0.7c0.1-0.1,0.3-0.3,0.4-0.4c0.7-0.7,1.1-1.1,1.3-2.2
			c0.1-0.3,0.3-0.5,0.6-0.4c0.3,0.1,0.5,0.3,0.4,0.6c-0.3,1.4-0.8,1.9-1.6,2.7c-0.1,0.1-0.2,0.3-0.4,0.4
			C347,35.6,346.8,35.6,346.7,35.6z"/>
	</g>
	<g>
		<path class="st0" d="M349,31.3c-0.3-0.1-0.5-0.3-0.4-0.6c0.1-0.2,0.2-0.4,0.3-0.6c0-0.1,0.1-0.1,0.1-0.2c0.1-0.3,0.4-0.4,0.7-0.2
			c0.3,0.1,0.4,0.4,0.2,0.7c0,0.1-0.1,0.2-0.1,0.3c-0.1,0.1-0.1,0.2-0.2,0.3C349.5,31.2,349.2,31.3,349,31.3z"/>
	</g>
</g>
<g>
	<path class="st0" d="M326.3,74.8c-3.4,0.7-5.5,4.1-4.8,7.4c0.1,0.3,0.4,0.6,0.8,0.5s0.6-0.4,0.5-0.8c-0.6-2.7,1.1-5.3,3.8-5.9
		c0.4-0.1,0.6-0.4,0.5-0.8C327,75,326.6,74.8,326.3,74.8z"/>
	<path class="st0" d="M334,72.5c-1.7,1.1-2.8,2.9-2.9,4.9c0,0.4,0.2,0.7,0.6,0.7c0.1,0,0.1,0,0.2,0c0.3-0.1,0.5-0.3,0.5-0.6
		c0.1-1.6,1-3,2.3-3.9c0.3-0.2,0.4-0.6,0.2-0.9C334.7,72.4,334.3,72.3,334,72.5z"/>
	<path class="st0" d="M321.9,71.8c-0.3-1.2,0.5-2.4,1.7-2.7c0.4-0.1,0.6-0.4,0.5-0.8c-0.1-0.3-0.4-0.6-0.8-0.5
		c-1.9,0.4-3.1,2.3-2.7,4.2c0.1,0.3,0.4,0.6,0.8,0.5S322,72.2,321.9,71.8z"/>
	<path class="st0" d="M343.5,76.4c-0.6-2.6-2.6-4.5-5.2-4.8c0-0.3,0-0.6-0.1-1c-0.4-1.9-2.3-3.1-4.2-2.7c-0.3,0.1-0.6,0.2-0.9,0.3
		c-1.9-3.1-5.5-4.6-9.1-3.9c-3.6,0.8-6.3,3.8-6.7,7.4c-0.4,0-0.8,0-1.2,0.1c-1.9,0.4-3.1,2.3-2.7,4.2c0.1,0.5,0.3,0.9,0.6,1.3
		c-1.6,1.5-2.3,3.7-1.8,5.9c0.7,3.4,4.1,5.5,7.5,4.7c1.3-0.3,2.5-1,3.4-2.1l3.7,11c0.1,0.4,0.5,0.6,0.9,0.5l6.8-1.5
		c0.4-0.1,0.7-0.5,0.6-0.9l-1.3-12.2c1.4,1,3.2,1.3,4.9,1C342,83.1,344.2,79.7,343.5,76.4z M327.8,96.1l-3.2-9.7
		c0.5,0.3,1,0.5,1.5,0.6l0.8,2.3c0.1,0.3,0.4,0.5,0.8,0.4c0,0,0,0,0.1,0c0.3-0.1,0.5-0.5,0.4-0.8l-0.6-1.7c0.5,0,0.9,0,1.4-0.1
		c0.4-0.1,0.8-0.2,1.1-0.4l0.2,1.7c0,0.4,0.4,0.6,0.7,0.6c0,0,0,0,0.1,0c0.3-0.1,0.5-0.4,0.5-0.7l-0.2-2.3c0.5-0.4,0.9-0.8,1.3-1.3
		l1.1,10.2L327.8,96.1z M338.4,82.6c-1.7,0.4-3.5-0.2-4.7-1.5l-1-1l-0.2,1.4c-0.2,2.1-1.8,3.8-3.9,4.3c-1.8,0.4-3.7-0.2-4.9-1.6
		l-0.6-0.7l-0.5,0.8c-0.7,1.3-1.9,2.2-3.3,2.5c-2.7,0.6-5.4-1.1-5.9-3.8c-0.4-1.9,0.3-3.9,1.9-5l0.6-0.5l-0.6-0.5
		c-0.4-0.3-0.6-0.7-0.7-1.2c-0.3-1.2,0.5-2.4,1.7-2.7c0.4-0.1,0.9-0.1,1.3,0.1l0.9,0.3v-0.9c0-3.4,2.4-6.2,5.7-6.9
		c3.3-0.7,6.6,0.9,8,3.8l0.4,0.7l0.6-0.5c0.3-0.2,0.6-0.4,1-0.5c1.2-0.3,2.4,0.5,2.7,1.7c0.1,0.4,0.1,0.7,0,1.1l-0.2,0.8h0.8
		c2.3,0.1,4.2,1.7,4.7,3.9C342.8,79.3,341.1,82,338.4,82.6z"/>
</g>
<g>
	<path class="st0" d="M283,26.6c-0.4-0.1-0.8-0.1-1.2,0.1l-2.8,1.2c-6.8-2.7-12.7-0.2-12.9-0.1c-0.3,0.1-6.3,2.5-9.1,9.2l-2.8,1.2
		c-0.5,0.2-0.9,0.6-1.1,1c-0.2,0.4-0.2,0.8,0,1.1l1.6,3.8c0.2,0.4,0.6,0.8,1.1,0.9c0.3,0.1,0.5,0,0.8,0c1,2.7,3.8,10.6,6.4,17.1
		c-1.1,1.2-1.3,3.1-0.4,4.5c0.8,1.3,2.3,1.9,3.8,1.6c1.2-0.3,2.3-1.1,2.7-2.2c5.3-0.6,11.2-3.1,11.4-3.2c0.3-0.1,6.1-2.5,10.4-5.8
		c1.2,0.5,2.5,0.4,3.5-0.3c0.1-0.1,0.2-0.1,0.3-0.2c1.1-0.9,1.6-2.3,1.3-3.6c-0.4-1.6-1.8-2.8-3.4-2.9c-2.8-6.5-6.4-14.1-7.6-16.7
		c0.1,0,0.1-0.1,0.2-0.1c0.2-0.1,0.3-0.3,0.4-0.5c0.3-0.4,0.3-0.9,0.1-1.4l-1.6-3.8C283.9,27.1,283.5,26.7,283,26.6z M266.8,29.7
		c0,0,4.2-1.8,9.3-0.6l-16.3,6.8C262.5,31.4,266.7,29.7,266.8,29.7z M292.3,51.9c0.7,0,1.4,0.4,1.6,1.4c0.1,0.7-0.1,1.4-0.7,1.8
		c-0.5,0.3-1.1,0.4-1.7,0.1c-0.6-0.3-1.4-0.2-1.9,0.2c-4,3.2-9.9,5.6-10,5.6s-5.9,2.5-11,3.1c-0.7,0.1-1.3,0.5-1.5,1.2
		c-0.2,0.6-0.7,1-1.3,1.1c-0.7,0.1-1.4-0.2-1.7-0.7c-0.5-0.8-0.3-1.6,0.2-2.1s0.6-1.3,0.4-1.9c-2.6-6.6-5.5-14.6-6.5-17.2L283,34.2
		c1.2,2.5,4.8,10.3,7.6,16.8C291,51.5,291.6,51.9,292.3,51.9z M283.6,31.7L270,37.3L256.3,43l-1.3-3l27.4-11.3L283.6,31.7z"/>
	<path class="st0" d="M277.5,44.7c-0.5-0.2-1.1,0-1.3,0.5l-1.5,3.5l-3.5-1.5c-0.4-0.2-0.8-0.1-1.1,0.2c0,0-0.1,0.1-0.1,0.2
		c0,0.1-0.1,0.1-0.1,0.2l0,0l-1.8,4.4c-0.2,0.5,0,1.1,0.5,1.3c0.4,0.1,0.7,0.1,1-0.2c0.1-0.1,0.2-0.2,0.3-0.4l1.5-3.5l3.5,1.5
		c0.4,0.1,0.7,0.1,1-0.2c0.1-0.1,0.2-0.2,0.3-0.4l0,0l1.5-3.5l3.5,1.5c0.4,0.1,0.7,0.1,1-0.2c0.1-0.1,0.2-0.2,0.3-0.4
		c0.2-0.5,0-1.1-0.5-1.3L277.5,44.7z"/>
</g>
<g>
	<path class="st0" d="M357.7,139.8c-0.4-1.3-1.7-2.1-3-2.1c-2.8-5-6.4-10.9-7.5-12.8l0.1-0.1c0.1-0.1,0.2-0.3,0.3-0.4
		c0.2-0.4,0.2-0.8,0-1.1l-1.6-2.9c-0.2-0.3-0.5-0.6-0.9-0.6c-0.3,0-0.7,0-1,0.2l-2.2,1.2c-5.7-1.6-10.3,0.9-10.4,1
		c-0.2,0.1-4.9,2.5-6.6,8.2l-2.2,1.2c-0.4,0.2-0.7,0.5-0.8,0.9c-0.1,0.3-0.1,0.6,0.1,0.9l1.6,2.9c0.2,0.3,0.5,0.6,0.9,0.6
		c0.2,0,0.4,0,0.6-0.1c1,2.1,4,8.2,6.7,13.3c-0.8,1.1-0.8,2.6,0.1,3.7c0.8,1,2.1,1.4,3.2,1c1-0.3,1.7-1.1,2-2c4.3-1,8.8-3.5,9-3.6
		s4.7-2.5,7.9-5.6c1,0.3,2,0.1,2.8-0.6c0.1-0.1,0.2-0.1,0.2-0.2C357.8,142,358.1,140.8,357.7,139.8z M332.2,123.5
		c0,0,3.3-1.8,7.5-1.3l-12.6,6.9C328.9,125.3,332.1,123.6,332.2,123.5z M323.5,132.9l21.1-11.5l1.3,2.4l-10.6,5.7l-10.6,5.7
		L323.5,132.9z M355.7,141.8c-0.4,0.3-0.9,0.4-1.3,0.3c-0.5-0.2-1.1,0-1.5,0.4c-3,2.9-7.5,5.3-7.6,5.4c0,0-4.6,2.5-8.6,3.4
		c-0.5,0.1-1,0.5-1.1,1.1c-0.1,0.5-0.5,0.8-0.9,1c-0.5,0.2-1.1,0-1.5-0.5c-0.5-0.6-0.4-1.3,0-1.7c0.4-0.5,0.4-1.1,0.1-1.6
		c-2.7-5.1-5.7-11.3-6.7-13.4l19.2-10.4c1.2,1.9,4.7,7.9,7.6,12.9c0.3,0.5,0.8,0.8,1.4,0.7c0.5,0,1.2,0.2,1.4,1
		C356.3,140.8,356.2,141.4,355.7,141.8z"/>
	<path class="st0" d="M345.8,135.9l-3.7-1.1c-0.4-0.1-0.9,0.1-1,0.5l-0.9,3l-3-0.9c-0.3-0.1-0.7,0-0.9,0.3c0,0,0,0.1-0.1,0.1
		c0,0.1-0.1,0.1-0.1,0.2l0,0l-1.1,3.7c-0.1,0.4,0.1,0.9,0.5,1c0.3,0.1,0.6,0,0.8-0.2c0.1-0.1,0.2-0.2,0.2-0.3l0.9-3l3,0.9
		c0.1,0,0.3,0,0.4,0s0.3-0.1,0.4-0.2c0.1-0.1,0.2-0.2,0.2-0.3l0,0l0.9-3l3,0.9c0.3,0.1,0.6,0,0.8-0.2c0.1-0.1,0.2-0.2,0.2-0.3
		C346.5,136.5,346.3,136,345.8,135.9z"/>
</g>
<path class="st1" d="M372.9,162c0.7-0.8,0.7-1.3,0.7-1.5s-0.1-0.4-0.3-0.5c-0.1-0.1-0.6-0.3-1.6-0.1c-0.1-1-0.4-1.4-0.6-1.6
	c-0.2-0.1-0.4-0.2-0.6-0.1c-0.2,0-0.9,0.3-1.6,1.8c0,0-0.1,0.1-0.1,0.2c-1.6-1-3.6-1.1-5.3-0.1c-0.1,0.1-9.2,5.9-17.6,13.8
	c-0.7,0.7-0.8,1.8-0.3,2.6s1.5,1.2,2.4,1c5.8-1.8,11.1-4,14.9-5.8l0,0c3.5-1.6,5.7-2.8,5.8-2.8c1.7-1,2.6-2.8,2.5-4.7
	c0.2,0,0.3,0,0.3,0c1.7,0.1,2.2-0.4,2.4-0.5c0.1-0.2,0.2-0.4,0.2-0.6C374,163.1,373.8,162.6,372.9,162z M368.1,168
	c0,0-2.1,1.1-5.4,2.6c-0.3-0.3-1-1-1.7-2.1c-0.2-0.3-0.6-0.4-0.9-0.2s-0.4,0.6-0.2,0.8l0,0c0.6,0.9,1.1,1.5,1.5,1.9
	c-3.7,1.6-8.6,3.7-13.8,5.3c-0.4,0.1-0.8-0.1-1-0.4c-0.2-0.4-0.2-0.8,0.1-1.1c2.9-2.8,5.9-5.3,8.6-7.3c0.1,0.5,0.4,1.2,0.8,2l0,0
	c0.2,0.3,0.5,0.4,0.8,0.2s0.4-0.5,0.3-0.8c-0.5-1.1-0.8-1.9-0.9-2.3c1.7-1.3,3.2-2.4,4.4-3.3c0.2,0.6,0.5,1.4,1,2.4l0,0
	c0.2,0.3,0.5,0.4,0.8,0.2s0.4-0.5,0.3-0.8c-0.6-1.2-0.9-2.1-1-2.6c1.3-0.9,2.2-1.5,2.2-1.5c1.8-1.1,4.2-0.5,5.3,1.4
	C370.5,164.5,369.9,166.9,368.1,168z M371.6,163.2c0,0-0.3,0-0.6-0.1c-0.1-0.4-0.3-0.7-0.5-1.1c-0.2-0.3-0.4-0.6-0.7-0.9
	c0.1-0.3,0.2-0.5,0.2-0.5c0.1-0.3,0.3-0.5,0.4-0.7c0,0.2,0,0.5,0,0.8c0,0.2,0.1,0.4,0.2,0.5c0.2,0.1,0.4,0.2,0.6,0.1
	c0.3-0.1,0.6-0.2,0.8-0.2c-0.1,0.2-0.3,0.4-0.5,0.6c-0.1,0.1-0.2,0.3-0.2,0.5s0.2,0.4,0.3,0.5c0.3,0.1,0.5,0.3,0.7,0.4
	C372.1,163.2,371.9,163.2,371.6,163.2z"/>
<g>
	<path class="st0" d="M232.3,105.1c0-0.1-0.1-0.3-0.1-0.4c-0.1-0.2-0.2-0.4-0.3-0.6l0,0l0,0l0,0l0,0c-1.2-2.5-3.9-4-4.1-4.1
		c-7.4-3.8-9.6-0.5-9.8-0.1c-0.2,0.3-1.3,2.3,0.9,5.3l0,0c0.8,1,1.9,2.2,3.6,3.4c0.1,0.1,2.7,1.8,5.5,1.8l0,0l0,0l0,0l0,0
		c0.2,0,0.5,0,0.7,0c1.3-0.2,2.4-0.9,3.1-2C232.4,107.3,232.6,106.2,232.3,105.1z M230.8,107.7c-0.5,0.8-1.3,1.3-2.2,1.4
		c-0.2,0-0.4,0-0.5,0s-0.1,0-0.2,0c0.1-0.1,0.2-0.2,0.3-0.3c0.2-0.2,0.2-0.4,0.2-0.6c0-0.1-0.1-0.2-0.2-0.3c-0.2-0.2-0.6-0.2-0.8,0
		c-0.5,0.5-1.2,0.8-1.2,0.8l0,0c-1.6-0.5-2.8-1.3-2.8-1.3c-1.3-1-2.2-1.8-2.9-2.6c0.3-0.2,0.7-0.5,1.1-0.8c0.1-0.2,0.2-0.4,0.1-0.5
		c0-0.1-0.1-0.2-0.2-0.3c-0.2-0.2-0.6-0.2-0.8,0c-0.3,0.3-0.7,0.6-0.9,0.7c-1.4-2.2-0.6-3.5-0.6-3.5v-0.1c0,0,1.7-2.8,8.2,0.6
		c0,0,0.5,0.3,1.2,0.9c0,0.2-0.1,0.5-0.2,0.9c-0.1,0.3,0,0.7,0.3,0.8c0.3,0.1,0.7,0,0.8-0.3c0.1-0.1,0.1-0.3,0.1-0.4
		c0.5,0.5,1,1.1,1.4,1.8c0.1,0.2,0.1,0.3,0.2,0.5C231.4,105.9,231.2,106.9,230.8,107.7z"/>
	<path class="st0" d="M225.7,103.4c0,0,0.3-0.4,0.7-1.2c0.1-0.1,0.1-0.3,0-0.4c0-0.2-0.2-0.3-0.3-0.4c-0.3-0.1-0.7,0-0.8,0.3
		c-0.3,0.7-0.6,1-0.6,1c-0.2,0.3-0.1,0.6,0.1,0.8C225.2,103.7,225.5,103.6,225.7,103.4z"/>
	<path class="st0" d="M226.2,105.4c-0.3-0.2-0.6-0.1-0.8,0.1c-0.3,0.5-0.7,0.8-0.7,0.8c-0.3,0.2-0.3,0.6-0.1,0.8
		c0.2,0.3,0.6,0.3,0.8,0.1c0,0,0.5-0.4,0.9-1c0.1-0.1,0.1-0.3,0.1-0.5C226.4,105.6,226.3,105.5,226.2,105.4z"/>
</g>
<path class="st1" d="M378.9,69.5c-0.8-10.3-5.7-10.5-6.3-10.5c-0.6,0-5.5,0.2-6.3,10.5c0,0.2-0.1,4.1,1.7,7c0.1,0.1,0.2,0.2,0.3,0.3
	c0,0.2,0.1,0.3,0.2,0.4c1,1.2,2.5,1.9,4.1,1.9s3.1-0.7,4.1-1.9c0.1-0.1,0.1-0.3,0.2-0.4s0.3-0.1,0.3-0.3
	C379.1,73.6,379,69.7,378.9,69.5z M372.6,77.7c-1.2,0-2.2-0.5-3-1.4c-0.1-0.1-0.2-0.2-0.3-0.2c0-0.1,0-0.2-0.1-0.3
	c-1.6-2.5-1.5-6.1-1.5-6.1c0.7-9.2,4.7-9.1,4.8-9.1h0.1l0,0c0,0,4-0.1,4.8,9.1c0,0,0.1,3.6-1.5,6.2c-0.1,0.1-0.1,0.2-0.1,0.3
	c-0.1,0-0.2,0.1-0.3,0.2C374.9,77.2,373.8,77.7,372.6,77.7z"/>
<path class="st1" d="M369.1,76.8c-0.2-0.2-0.3-0.4-0.4-0.6C368.8,76.4,368.9,76.6,369.1,76.8z"/>
<path class="st1" d="M376.6,76.1c-0.1,0.2-0.3,0.4-0.4,0.6C376.4,76.6,376.5,76.4,376.6,76.1z"/>
<circle class="st1" cx="372.8" cy="74.5" r="0.4"/>
<circle class="st1" cx="375" cy="71.9" r="0.9"/>
<circle class="st1" cx="373.4" cy="64.4" r="0.6"/>
<circle class="st1" cx="371.3" cy="67.4" r="0.6"/>
<g>
	<polygon class="st0" points="253.5,93.3 247.8,90.2 248.3,89.1 253,91.6 255.7,86.5 260.9,89.2 263.6,84.2 268.8,86.8 271.5,81.8 
		276.7,84.4 279.2,79.9 280.3,80.5 277.2,86.1 272.1,83.4 269.3,88.5 264.2,85.8 261.4,90.9 256.3,88.2 	"/>
</g>
<g>
	<polygon class="st0" points="323.1,30.4 324.9,33.9 324.2,34.3 322.8,31.4 319.6,33 318,29.9 314.8,31.5 313.1,28.3 310,30 
		308.3,26.8 305.5,28.2 305.2,27.6 308.7,25.8 310.3,28.9 313.5,27.3 315.1,30.5 318.3,28.8 320,32 	"/>
</g>
<g>
	<polygon class="st0" points="379.1,39.1 375.6,44.5 374.6,43.9 377.4,39.5 372.6,36.5 375.6,31.6 370.8,28.6 373.8,23.7 369,20.7 
		372,15.9 367.7,13.2 368.4,12.1 373.7,15.5 370.7,20.3 375.5,23.3 372.5,28.2 377.3,31.2 374.3,36.1 	"/>
</g>
<g>
	<polygon class="st0" points="239.7,147.5 234.4,149.5 234,148.5 238.3,146.9 236.5,142.3 241.2,140.4 239.5,135.8 244.2,134 
		242.4,129.3 247.1,127.5 245.6,123.4 246.6,123 248.5,128.1 243.8,129.9 245.6,134.6 240.9,136.4 242.6,141.1 237.9,142.9 	"/>
</g>
<g>
	<polygon class="st0" points="304.6,183.5 299.9,181.7 300.2,180.8 304.1,182.3 305.7,178 310,179.6 311.6,175.4 315.9,177 
		317.5,172.8 321.8,174.4 323.3,170.6 324.2,170.9 322.4,175.6 318.1,174 316.5,178.3 312.2,176.7 310.6,180.9 306.3,179.3 	"/>
</g>
<path class="st2" d="M252.5,199.1c-0.9,0-1.7-0.1-2.5-0.3l1.9,3l1.4-1.4L252.5,199.1z"/>
<path class="st2" d="M262.6,191l0.7-0.7c-0.3-0.1-0.7-0.2-1-0.3L262.6,191z"/>
<path class="st2" d="M272.6,177.6c-1.6-3.2-5.1-4.9-8.5-4.1l-1.3,0.3v-1.3c0-0.6-0.1-1.1-0.4-1.6c-0.8-1.7-2.9-2.4-4.6-1.6
	c-0.5,0.3-1,0.6-1.3,1.1l-0.7,1l-0.8-1c-3.3-3.9-8.8-5.1-13.4-2.8c-4.7,2.3-7.1,7.5-5.9,12.6l0.3,1.4l-1.4-0.2c-0.7-0.1-1.4,0-2,0.3
	c-1.7,0.8-2.4,2.9-1.6,4.6c0.3,0.7,0.8,1.2,1.5,1.5l1.1,0.6l-0.8,1c-1.9,2.3-2.3,5.6-0.9,8.3c1.9,3.8,6.5,5.4,10.3,3.5
	c2-1,3.5-2.8,4-5l0.4-1.4l1.2,0.9c2.3,1.7,5.4,1.9,7.9,0.7c2.9-1.5,4.6-4.6,4.2-7.9l-0.3-2.1l1.8,1.2c1.1,0.7,2.3,1.1,3.5,1.2
	l8.4-8.4C273.3,179.4,273.1,178.5,272.6,177.6z M249.4,181.2c0.2,0.5,0,1.1-0.5,1.3c-3.8,1.9-5.4,6.5-3.5,10.3
	c0.2,0.5,0,1.1-0.5,1.3s-1.1,0-1.3-0.5c-2.4-4.8-0.4-10.6,4.4-13C248.6,180.5,249.2,180.7,249.4,181.2z M242.5,171.8
	c0.2,0.5,0,1.1-0.5,1.3c-1.7,0.8-2.4,2.9-1.6,4.6c0.2,0.5,0,1.1-0.5,1.3s-1.1,0-1.3-0.5c-1.3-2.7-0.2-6,2.5-7.3
	C241.6,171.1,242.2,171.3,242.5,171.8z M260.2,175.7c-1.7,1.8-2.4,4.3-2,6.7c0.1,0.4-0.2,0.9-0.5,1.1c-0.1,0-0.2,0.1-0.3,0.1
	c-0.5,0.1-1.1-0.3-1.2-0.8c-0.5-3,0.4-6.2,2.5-8.4c0.4-0.4,1-0.4,1.4,0C260.5,174.7,260.5,175.3,260.2,175.7z"/>
<path class="st2" d="M254.9,198.8c-0.1,0-0.2,0.1-0.3,0.1l0.1,0.1L254.9,198.8z"/>
<path class="st1" d="M248.1,180.7c-4.8,2.4-6.8,8.2-4.4,13c0.2,0.5,0.8,0.7,1.3,0.5s0.7-0.8,0.5-1.3c-1.9-3.8-0.3-8.4,3.5-10.3
	c0.5-0.2,0.7-0.8,0.5-1.3C249.2,180.7,248.6,180.5,248.1,180.7z"/>
<path class="st1" d="M258.7,174.3c-2.1,2.2-3.1,5.4-2.5,8.4c0.1,0.5,0.6,0.9,1.2,0.8c0.1,0,0.2,0,0.3-0.1c0.4-0.2,0.6-0.6,0.5-1.1
	c-0.4-2.4,0.3-4.9,2-6.7c0.4-0.4,0.4-1,0-1.4C259.7,173.9,259.1,173.9,258.7,174.3z"/>
<path class="st1" d="M241.1,171.4c-2.7,1.3-3.8,4.6-2.5,7.3c0.2,0.5,0.8,0.7,1.3,0.5s0.7-0.8,0.5-1.3c-0.8-1.7-0.1-3.8,1.6-4.6
	c0.5-0.2,0.7-0.8,0.5-1.3C242.2,171.3,241.6,171.1,241.1,171.4z"/>
<path class="st1" d="M264.8,171.4c-0.1-0.5-0.3-1-0.5-1.4c-1.3-2.7-4.6-3.8-7.3-2.5c-0.4,0.2-0.9,0.5-1.2,0.8c-4-3.9-10-5-15.1-2.5
	c-5.2,2.5-8,8-7.2,13.6c-0.6,0.1-1.2,0.2-1.8,0.5c-2.7,1.3-3.8,4.6-2.5,7.3c0.3,0.7,0.8,1.3,1.4,1.8c-1.8,2.8-2.1,6.5-0.5,9.5
	c2.4,4.8,8.2,6.8,13,4.4c1.9-0.9,3.4-2.5,4.4-4.3l2.9,4.6l1.4-1.4l-1.9-3c0.8,0.2,1.7,0.3,2.5,0.3l0.8,1.3l1.4-1.4l-0.1-0.1
	c0.1,0,0.2-0.1,0.3-0.1l2.9-2.9l1.1-1.1l2.1-2.1l0.6-0.6l0.9-0.9l-0.4-1c0.3,0.1,0.7,0.2,1,0.3l1.7-1.7c-1.2-0.1-2.4-0.5-3.5-1.2
	l-1.8-1.2l0.3,2.1c0.4,3.3-1.3,6.4-4.2,7.9c-2.6,1.3-5.6,1-7.9-0.7l-1.2-0.9l-0.4,1.4c-0.6,2.2-2,4-4,5c-3.8,1.9-8.4,0.3-10.3-3.5
	c-1.3-2.7-1-5.9,0.9-8.3l0.8-1l-1.1-0.6c-0.7-0.3-1.2-0.9-1.5-1.5c-0.8-1.7-0.1-3.8,1.6-4.6c0.6-0.3,1.3-0.4,2-0.3l1.4,0.2l-0.3-1.4
	c-1.2-5.1,1.2-10.3,5.9-12.6c4.6-2.3,10.1-1.1,13.4,2.8l0.8,1l0.7-1c0.3-0.5,0.8-0.8,1.3-1.1c1.7-0.8,3.8-0.1,4.6,1.6
	c0.3,0.5,0.4,1.1,0.4,1.6v1.3l1.3-0.3c3.4-0.7,7,0.9,8.5,4.1c0.4,0.9,0.7,1.8,0.8,2.7l1.7-1.7c-0.2-0.6-0.4-1.2-0.7-1.9
	C272.6,173.1,268.8,171,264.8,171.4z"/>
<polygon class="st1" points="339.8,198.4 345.3,198.9 345.9,193.5 351.4,194.1 352.1,188.1 350.9,188 350.4,192.8 344.9,192.2 
	344.3,197.6 338.8,197.1 338.5,200 339.6,200 "/>
<g>
	<path class="st0" d="M269.3,0c-2,2.4-5.3,3.4-8.4,2.4c-1.4-0.5-2.5-1.3-3.4-2.4h-2.4c1.2,2,3,3.5,5.2,4.3c4.4,1.5,9.2-0.4,11.5-4.3
		H269.3z"/>
	<path class="st0" d="M251.9,0h-3h-1.6h-4.1c0.5,0.3,1.1,0.6,1.7,0.8c0.6,0.2,1.2,0.3,1.8,0.4l-1.1,2.5c-0.2,0.5,0,1.1,0.5,1.3h0.1
		c0.5,0.2,1-0.1,1.2-0.5l1.5-3.3c1-0.1,1.9-0.3,2.8-0.7L245,15l-8.8-3l2.7-12h-2l-2.7,12.2c-0.2,0.6,0.2,1.3,0.8,1.5l10.1,3.4
		c0.6,0.2,1.3-0.1,1.5-0.7L254.1,0h-1.3H251.9z"/>
	<path class="st0" d="M241.1,3.3h0.1c0.5,0.1,1.1-0.2,1.2-0.8L243,0h-2l-0.5,2.1C240.3,2.6,240.6,3.1,241.1,3.3z"/>
</g>
<polygon class="st1" points="332.7,1.9 332.1,7.3 327.1,6.7 327,7.9 333.1,8.6 333.7,3.2 339.2,3.7 339.6,0 338.5,0 338.2,2.5 "/>
<path class="st2" d="M212.1,33.3c0.3-0.3,0.8-0.2,1,0.1c0.3,0.3,0.2,0.7,0,1l0,0c-0.9,0.8-1.7,1.3-2.2,1.7v0.3
	c1.3,1.1,3,2.5,4.9,3.9c0.4-0.2,1.3-0.7,2.4-1.7c0.3-0.3,0.8-0.2,1,0.1c0.3,0.3,0.2,0.7,0,1l0,0c-0.9,0.7-1.6,1.2-2.1,1.5
	c3.2,2.4,7,5.2,11,7.7c0.4,0.2,0.9,0.1,1.3-0.2c0.3-0.3,0.4-0.9,0.2-1.3C226,42,222.2,37,219.2,33.2c-0.4,0.6-0.9,1.4-1.8,2.3l0,0
	c-0.3,0.3-0.7,0.3-1,0s-0.3-0.7-0.1-1c1.1-1.2,1.6-2.1,1.9-2.6c-2.7-3.3-4.6-5.4-4.6-5.4c-0.8-0.8-1.7-1.2-2.7-1.3v9
	C211.2,34,211.6,33.7,212.1,33.3z"/>
<path class="st1" d="M213.1,34.3c0.3-0.3,0.3-0.7,0-1s-0.7-0.3-1-0.1c-0.5,0.4-0.9,0.7-1.3,1V36C211.4,35.7,212.2,35.2,213.1,34.3
	C213.1,34.4,213.1,34.4,213.1,34.3z"/>
<path class="st1" d="M230.7,46.8c-3.8-6.1-8-11.5-11.1-15.4l0,0c-2.9-3.5-4.9-5.7-4.9-5.8c-1.1-1.1-2.4-1.6-3.8-1.8v1.5
	c1,0.1,2,0.5,2.7,1.3c0,0,1.9,2.1,4.6,5.4c-0.3,0.5-0.8,1.4-1.9,2.6c-0.3,0.3-0.2,0.8,0.1,1c0.3,0.3,0.7,0.2,1,0l0,0
	c0.8-0.9,1.4-1.8,1.8-2.3c3,3.7,6.8,8.8,10.3,14.3c0.2,0.4,0.2,1-0.2,1.3c-0.3,0.3-0.9,0.4-1.3,0.2c-4.1-2.5-7.8-5.3-11-7.7
	c0.5-0.3,1.3-0.8,2.1-1.5l0,0c0.3-0.3,0.3-0.7,0-1s-0.7-0.3-1-0.1c-1.1,1-2,1.5-2.4,1.7c-1.9-1.5-3.5-2.8-4.9-3.9v1.9
	c3.9,3.2,9.8,7.8,16.4,12c1,0.6,2.3,0.4,3.1-0.4C231.2,49.1,231.3,47.8,230.7,46.8z"/>
<polygon class="st1" points="202,92.6 202.3,84 211,84.2 211.2,75.6 219.9,75.8 220.2,66.3 218.4,66.3 218.1,73.9 209.4,73.7 
	209.2,82.3 200.5,82.1 200.2,90.7 200,90.7 200,92.6 "/>
<path class="st1" d="M399.7,30.4c0.1-0.1,0.2-0.1,0.3-0.2v-2.9c-1,0.7-1.8,1.2-2.3,1.4c-2.4-2-3.7-3.3-3.8-3.3
	c-2.3-2.3-2.8-5.9-1.4-8.7l0.1-0.1c0.3-0.6,0.8-1.2,1.3-1.7s1.1-1,1.8-1.3c0,0,0.1,0,0.1-0.1c1.3-0.7,2.8-0.9,4.2-0.8v-2.4
	c-1.3-0.1-2.5,0-3.7,0.4c0-0.3-0.1-0.5-0.1-0.5c-0.7-3.1-1.8-3.9-2.2-4.1c-0.4-0.2-0.8-0.2-1.1,0c-0.3,0.1-1.1,0.7-1.8,2.6
	c-1.8-0.9-2.8-0.7-3.1-0.6c-0.4,0.1-0.7,0.4-0.8,0.8c-0.1,0.3-0.3,1.3,0.6,3.1c-1.9,0.7-2.5,1.5-2.6,1.8c-0.2,0.4-0.2,0.8,0,1.1
	s1,1.5,4.2,2.2c0,0,0.2,0,0.5,0.1c-1.1,3.4-0.2,7.2,2.5,9.9c0.1,0.1,3,2.7,7.7,6.7v-3.1C399.9,30.6,399.8,30.5,399.7,30.4z
	 M389.8,14.8c-0.6-0.1-1.1-0.3-1.4-0.4c0.4-0.1,0.8-0.3,1.4-0.4c0.4-0.1,0.7-0.4,0.8-0.7c0.1-0.4,0.1-0.8-0.1-1.1
	c-0.3-0.5-0.6-1-0.7-1.3c0.4,0.2,0.8,0.4,1.3,0.7c0.3,0.2,0.7,0.2,1.1,0.1c0.4-0.1,0.6-0.5,0.7-0.8c0.1-0.6,0.3-1.1,0.4-1.4
	c0.1,0.4,0.3,0.8,0.4,1.4c0,0,0.1,0.5,0.2,1.1c-0.6,0.4-1.2,0.8-1.7,1.4c-0.5,0.5-1,1.1-1.4,1.7C390.3,14.8,389.8,14.8,389.8,14.8z"
	/>
<polygon class="st1" points="391.3,99.1 383.4,98.8 383.4,100.7 393.1,101 393.3,92.4 400,92.6 400,90.7 391.5,90.5 "/>
<path class="st2" d="M398.3,120.7c0.3,0.5,0.2,1.1-0.3,1.4c-0.2,0.1-0.4,0.2-0.5,0.2c-0.3,0-0.6-0.2-0.8-0.5c-0.5-0.7-0.8-1.5-1-2.1
	c-1.5,0.8-3.3,2-5.4,3.7c0,0-1.8,1.7-3.2,4.1l0,0c0,0,0.3,1.4,0.8,2.3c0.3,0.5,0.1,1.1-0.3,1.4c-0.2,0.1-0.3,0.1-0.5,0.1
	c-0.3,0-0.7-0.2-0.9-0.5c-0.1-0.2-0.2-0.4-0.3-0.6c0,0.1-0.1,0.2-0.1,0.3c-0.1,0.3-0.1,0.6-0.2,0.9c-0.1,1.6,0.4,3.1,1.5,4.2
	c1.1,1.1,2.6,1.7,4.2,1.5c0.3,0,0.6-0.1,0.9-0.2c1.3-0.3,2.5-0.9,3.5-1.5c-0.2-0.1-0.4-0.2-0.6-0.4c-0.5-0.3-0.6-0.9-0.2-1.4
	c0.3-0.5,0.9-0.6,1.4-0.2c0.5,0.4,1,0.6,1.3,0.7c1.1-0.9,1.9-1.7,1.9-1.7c0.2-0.2,0.4-0.5,0.6-0.7v-13.6c-0.7,0-1.6,0.2-2.5,0.5
	C397.6,119.4,397.8,120.1,398.3,120.7z M392.6,129.2c-0.2,0.2-0.4,0.3-0.7,0.3c-0.3,0-0.5-0.1-0.7-0.3c-0.9-1-1.3-1.8-1.3-1.9
	c-0.2-0.5,0-1.1,0.5-1.3c0.5-0.2,1.1,0,1.3,0.5c0,0,0.3,0.7,1,1.4C393,128.2,393,128.9,392.6,129.2z M399.3,130.6
	c-0.2,0.2-0.5,0.4-0.8,0.4c-0.2,0-0.4-0.1-0.6-0.2c-1.2-1-1.7-1.5-1.8-1.6c-0.4-0.4-0.3-1.1,0.1-1.4c0.4-0.4,1-0.3,1.4,0.1
	c0,0,0.4,0.5,1.5,1.3C399.5,129.6,399.6,130.2,399.3,130.6z"/>
<path class="st1" d="M399.4,132.6c0,0-0.7,0.8-1.9,1.7c-0.3-0.1-0.8-0.4-1.3-0.7s-1.1-0.2-1.4,0.2c-0.3,0.5-0.2,1.1,0.2,1.4
	c0.2,0.1,0.4,0.3,0.6,0.4c-1.1,0.6-2.3,1.2-3.5,1.5c-0.3,0.1-0.6,0.1-0.9,0.2c-1.6,0.1-3.1-0.4-4.2-1.5s-1.7-2.6-1.5-4.2
	c0-0.3,0.1-0.6,0.2-0.9c0-0.1,0.1-0.2,0.1-0.3c0.1,0.2,0.2,0.4,0.3,0.6c0.2,0.3,0.5,0.5,0.9,0.5c0.2,0,0.4,0,0.5-0.1
	c0.5-0.3,0.6-0.9,0.3-1.4c-0.6-0.9-0.8-2.3-0.8-2.3l0,0c1.4-2.4,3.2-4.1,3.2-4.1c2.1-1.8,3.9-3,5.4-3.7c0.2,0.6,0.5,1.3,1,2.1
	c0.2,0.3,0.5,0.5,0.8,0.5c0.2,0,0.4-0.1,0.5-0.2c0.5-0.3,0.6-0.9,0.3-1.4c-0.4-0.6-0.7-1.3-0.8-1.8c1-0.3,1.8-0.5,2.5-0.5v-2
	c-1.2,0.1-2.5,0.4-4.1,1l0,0c-2,0.8-4.3,2.3-6.9,4.5c-0.2,0.2-4,3.7-5.1,8.3l0,0l0,0l0,0l0,0c-0.1,0.4-0.2,0.7-0.2,1.1
	c-0.2,2.2,0.6,4.3,2.1,5.8c1.4,1.4,3.2,2.1,5.1,2.1c0.2,0,0.5,0,0.7,0c0.4,0,0.7-0.1,1.1-0.2l0,0l0,0l0,0l0,0c3.2-0.8,6-2.9,7.4-4.2
	v-3C399.8,132.2,399.6,132.4,399.4,132.6z"/>
<path class="st1" d="M397.6,127.9c-0.4-0.4-1-0.5-1.4-0.1c-0.4,0.4-0.5,1-0.1,1.4c0.1,0.1,0.5,0.6,1.8,1.6c0.2,0.1,0.4,0.2,0.6,0.2
	c0.3,0,0.6-0.1,0.8-0.4c0.3-0.4,0.3-1.1-0.2-1.4C398.1,128.4,397.6,127.9,397.6,127.9z"/>
<path class="st1" d="M391.7,126.4c-0.2-0.5-0.8-0.7-1.3-0.5s-0.7,0.8-0.5,1.3c0,0,0.4,0.9,1.3,1.9c0.2,0.2,0.5,0.3,0.7,0.3
	s0.5-0.1,0.7-0.3c0.4-0.4,0.4-1,0.1-1.4C392,127.1,391.7,126.4,391.7,126.4z"/>
<polygon class="st1" points="399.2,165.4 398.7,158.7 392,159.1 391.5,152.4 384.9,152.8 384.5,146.7 383.1,146.8 383.5,154.3 
	390.2,153.9 390.7,160.6 397.4,160.2 397.8,167 400,166.8 400,165.4 "/>
<path class="st1" d="M203.1,130.6c3.1-13.6-3.1-15.8-3.8-16c-0.4-0.1-2.5-0.7-5.1,0.9l0.9,1.8c2-1.2,3.5-0.8,3.5-0.8h0.1
	c0.1,0,5,1.5,2.6,12.8l1.3,2.6C202.9,131.1,203.1,130.6,203.1,130.6z"/>
<polygon class="st1" points="189.1,185.4 190.2,192.7 191.7,192.5 190.8,186.6 197.4,185.5 196.6,179.7 195.1,179.9 195.8,184.3 "/>
<g>
	<g>
		<path class="st0" d="M108.9,347.7l-14.7,8.4c-1,0.5-2.2,0.2-2.7-0.7L79,333.7c-0.1-0.2-1.7-3.3-1.7-6.3c0-0.4,0-0.8,0-1.1
			c0.1-2,0.1-3-1-4.9c-1-1.8-1.4-3.8-1.6-5.3c-0.1-0.6-0.2-1.2-0.3-1.4l-0.1-0.1c0,0-0.5-1.3-1.4-2.1c-1.3-1-1.1-2.3-0.9-2.8
			l0.1-0.3l7.4-4.2h0.3c0.6,0,1.8,0.5,2,2.2c0.2,1.2,1,2.3,1.1,2.3l0.1,0.1c0.1,0.2,0.6,0.6,1.1,1c1.2,1,2.8,2.3,3.8,4.1
			c1.1,1.9,2,2.4,3.8,3.3c0.3,0.2,0.6,0.3,1,0.5c2.7,1.5,4.5,4.5,4.6,4.6l12.4,21.7C110.2,345.9,109.8,347.1,108.9,347.7z
			 M76.2,313.7c0.2,0.4,0.3,1.1,0.5,2c0.2,1.4,0.6,3.2,1.4,4.7c1.4,2.4,1.3,3.8,1.3,6c0,0.3,0,0.7,0,1.1c-0.1,2.5,1.4,5.3,1.4,5.3
			l12.4,21.6l14.7-8.4l-12.4-21.6c0,0-1.6-2.7-3.8-3.9c-0.3-0.2-0.7-0.4-1-0.5c-1.9-1-3.2-1.7-4.6-4.1c-0.8-1.5-2.3-2.7-3.3-3.6
			c-0.7-0.6-1.2-1-1.5-1.4c-0.2-0.3-1.2-1.6-1.4-3.2c0-0.1,0-0.2-0.1-0.3l-5.9,3.4c0,0.1,0.1,0.1,0.2,0.2
			C75.4,311.8,76.1,313.4,76.2,313.7z"/>
	</g>
	<g>
		<path class="st0" d="M102,344.7l-6.9,3.9c-1,0.5-2.2,0.2-2.7-0.7l-7.6-13.2c-0.5-1-0.2-2.2,0.7-2.7l6.9-3.9c1-0.5,2.2-0.2,2.7,0.7
			l7.6,13.2C103.2,342.9,102.9,344.2,102,344.7z M86.5,333.7l7.6,13.2l6.9-3.9l-7.6-13.2L86.5,333.7z"/>
	</g>
	<g>
		<path class="st0" d="M82,327.8c-0.2,0.1-0.3,0.1-0.5,0.1c-0.6,0-1-0.5-1-1c0-0.4,0-0.8,0-1.1c0.1-2,0.1-3-1-4.9
			c-0.3-0.5-0.1-1.1,0.4-1.4s1.1-0.1,1.4,0.4c1.4,2.4,1.3,3.8,1.3,6c0,0.3,0,0.7,0,1.1C82.4,327.3,82.2,327.6,82,327.8z"/>
	</g>
	<g>
		<path class="st0" d="M79.7,318.5c-0.5,0.3-1.1,0.1-1.4-0.4c-0.2-0.4-0.3-0.9-0.4-1.2c0-0.1-0.1-0.3-0.1-0.4
			c-0.2-0.5,0.1-1.1,0.7-1.2c0.5-0.2,1.1,0.1,1.2,0.7c0.1,0.2,0.1,0.4,0.1,0.6c0.1,0.3,0.1,0.5,0.2,0.7
			C80.3,317.6,80.1,318.2,79.7,318.5z"/>
	</g>
</g>
<g>
	<g>
		<path class="st0" d="M146.7,252.4l-7.8-3.8c-0.5-0.3-0.7-0.9-0.5-1.4l5.7-11.5c0-0.1,0.9-1.7,2.2-2.5c0.2-0.1,0.3-0.2,0.5-0.3
			c0.9-0.5,1.3-0.8,1.8-1.8c0.5-0.9,1.2-1.7,1.8-2.2c0.2-0.2,0.5-0.5,0.5-0.5v-0.1c0,0,0.4-0.6,0.5-1.2c0.1-0.8,0.7-1.1,1-1.2h0.2
			l3.9,1.9l0.1,0.1c0.2,0.3,0.3,0.9-0.3,1.5c-0.5,0.4-0.7,1.1-0.7,1.1v0.1c0,0.1-0.1,0.5-0.1,0.7c-0.1,0.8-0.2,1.8-0.7,2.8
			s-0.5,1.5-0.3,2.6c0,0.2,0,0.4,0.1,0.6c0.1,1.6-0.6,3.2-0.7,3.3l-5.7,11.5C147.8,252.4,147.2,252.6,146.7,252.4z M151.8,228.8
			c-0.1,0.2-0.4,0.5-0.7,0.8c-0.5,0.5-1.2,1.2-1.6,1.9c-0.6,1.3-1.3,1.7-2.2,2.2c-0.1,0.1-0.3,0.2-0.5,0.3c-1.1,0.7-1.8,2.1-1.8,2.1
			l-5.7,11.5l7.8,3.8l5.7-11.5c0,0,0.7-1.5,0.6-2.7c0-0.2,0-0.4-0.1-0.6c-0.1-1.1-0.2-1.8,0.4-3.1c0.4-0.8,0.5-1.7,0.6-2.4
			c0.1-0.5,0.1-0.8,0.2-1c0.1-0.2,0.4-1,1-1.5l0.1-0.1l-3.1-1.5c0,0,0,0.1,0,0.2C152.4,227.9,151.9,228.6,151.8,228.8z"/>
	</g>
	<g>
		<path class="st0" d="M146,248.6l-3.6-1.8c-0.5-0.3-0.7-0.9-0.5-1.4l3.5-7c0.3-0.5,0.9-0.7,1.4-0.5l3.6,1.8
			c0.5,0.3,0.7,0.9,0.5,1.4l-3.5,7C147.1,248.6,146.5,248.8,146,248.6z M146.2,238.8l-3.5,7l3.6,1.8l3.5-7L146.2,238.8z"/>
	</g>
	<g>
		<path class="st0" d="M147.5,235.2c-0.1,0-0.2-0.1-0.2-0.2c-0.2-0.2-0.1-0.6,0.2-0.7c0.2-0.1,0.3-0.2,0.5-0.3
			c0.9-0.5,1.3-0.8,1.8-1.8c0.1-0.3,0.4-0.4,0.7-0.2c0.3,0.1,0.4,0.4,0.2,0.7c-0.6,1.3-1.3,1.7-2.2,2.2c-0.1,0.1-0.3,0.2-0.5,0.3
			S147.6,235.3,147.5,235.2z"/>
	</g>
	<g>
		<path class="st0" d="M150.8,231.6c-0.3-0.1-0.4-0.4-0.2-0.7c0.1-0.2,0.3-0.4,0.4-0.5c0.1-0.1,0.1-0.1,0.1-0.2
			c0.2-0.2,0.5-0.2,0.7-0.1c0.2,0.2,0.2,0.5,0.1,0.7c-0.1,0.1-0.1,0.1-0.2,0.2c-0.1,0.1-0.2,0.2-0.2,0.3
			C151.3,231.6,151,231.7,150.8,231.6z"/>
	</g>
</g>
<g>
	<path class="st0" d="M124.5,275.6c-3,1.8-4,5.6-2.2,8.6c0.2,0.3,0.6,0.4,0.9,0.2c0.3-0.2,0.4-0.6,0.2-0.9c-1.4-2.3-0.6-5.4,1.8-6.8
		c0.3-0.2,0.4-0.6,0.2-0.9C125.2,275.5,124.8,275.4,124.5,275.6z"/>
	<path class="st0" d="M131,271c-1.3,1.5-1.7,3.6-1.2,5.5c0.1,0.3,0.4,0.5,0.8,0.5c0.1,0,0.1,0,0.2-0.1c0.2-0.1,0.4-0.4,0.3-0.7
		c-0.4-1.5,0-3.2,1-4.4c0.2-0.3,0.2-0.7-0.1-0.9C131.7,270.6,131.3,270.7,131,271z"/>
	<path class="st0" d="M119.4,274.1c-0.6-1.1-0.3-2.4,0.8-3.1c0.3-0.2,0.4-0.6,0.2-0.9c-0.2-0.3-0.6-0.4-0.9-0.2
		c-1.7,1-2.2,3.2-1.3,4.8c0.2,0.3,0.6,0.4,0.9,0.2C119.5,274.8,119.6,274.4,119.4,274.1z"/>
	<path class="st0" d="M141.3,271.7c-1.3-2.2-3.9-3.4-6.5-2.9c-0.1-0.3-0.2-0.6-0.4-0.9c-1-1.7-3.2-2.2-4.8-1.2
		c-0.3,0.2-0.5,0.4-0.7,0.6c-2.7-2.3-6.7-2.7-9.9-0.8c-3.2,1.9-4.8,5.6-4,9.1c-0.4,0.1-0.8,0.2-1.1,0.4c-1.7,1-2.2,3.2-1.3,4.8
		c0.3,0.4,0.6,0.8,1,1.1c-1,1.9-1,4.3,0.1,6.1c1.8,3,5.6,3.9,8.6,2.1c1.2-0.7,2.1-1.8,2.6-3l6.9,9.3c0.2,0.3,0.7,0.4,1,0.2l6-3.5
		c0.4-0.2,0.5-0.7,0.3-1l-5.1-11.2c1.7,0.5,3.5,0.3,5-0.6C142,278.5,143,274.6,141.3,271.7z M132.6,295.3l-6.1-8.2
		c0.5,0.1,1.1,0.1,1.6,0.1l1.4,1.9c0.2,0.3,0.6,0.3,0.8,0.2c0,0,0,0,0.1,0c0.3-0.2,0.3-0.6,0.1-0.9l-1.1-1.4
		c0.4-0.1,0.9-0.3,1.3-0.6c0.4-0.2,0.7-0.5,1-0.7l0.7,1.6c0.1,0.3,0.5,0.5,0.9,0.3c0,0,0,0,0.1,0c0.3-0.2,0.4-0.5,0.3-0.8l-1-2.1
		c0.4-0.5,0.6-1.1,0.8-1.6l4.2,9.3L132.6,295.3z M138.4,279.1c-1.5,0.9-3.4,0.9-4.9,0.1l-1.2-0.7l0.3,1.4c0.4,2.1-0.5,4.2-2.4,5.3
		c-1.6,0.9-3.6,0.9-5.1,0l-0.8-0.5l-0.2,0.9c-0.3,1.4-1.1,2.7-2.4,3.4c-2.4,1.4-5.4,0.6-6.8-1.7c-1-1.7-0.9-3.8,0.2-5.4l0.5-0.7
		l-0.7-0.3c-0.4-0.2-0.8-0.5-1-0.9c-0.6-1.1-0.3-2.4,0.8-3.1c0.4-0.2,0.8-0.3,1.3-0.3h0.9l-0.3-0.9c-1-3.2,0.3-6.6,3.2-8.4
		c2.9-1.7,6.5-1.3,8.8,1.1l0.6,0.6l0.4-0.7c0.2-0.3,0.5-0.6,0.8-0.8c1.1-0.6,2.4-0.3,3.1,0.8c0.2,0.3,0.3,0.7,0.3,1v0.8l0.8-0.2
		c2.2-0.7,4.5,0.2,5.7,2.2C141.6,274.7,140.8,277.7,138.4,279.1z"/>
</g>
<g>
	<path class="st0" d="M87.3,229.2c-0.4-0.2-0.8-0.2-1.2-0.2l-3,0.5c-6-4.1-12.3-2.9-12.6-2.9c-0.3,0-6.7,1-10.9,7l-3,0.5
		c-0.5,0.1-1,0.4-1.3,0.8c-0.2,0.3-0.3,0.7-0.3,1.1l0.7,4.1c0.1,0.5,0.4,0.9,0.8,1.1c0.2,0.1,0.5,0.2,0.8,0.2
		c0.4,2.8,1.4,11.2,2.5,18.1c-1.4,1-1.9,2.7-1.3,4.3c0.5,1.4,1.9,2.4,3.4,2.4c1.3,0,2.4-0.6,3.2-1.6c5.4,0.6,11.6-0.6,11.9-0.6
		s6.5-1.1,11.4-3.4c1,0.7,2.3,0.9,3.5,0.4c0.1,0,0.2-0.1,0.3-0.2c1.2-0.6,2-1.9,2-3.3c0-1.7-1.1-3.1-2.7-3.6
		c-1.3-6.9-3.1-15.2-3.7-17.9c0.1,0,0.1,0,0.2-0.1c0.2-0.1,0.4-0.2,0.5-0.4c0.4-0.4,0.5-0.8,0.4-1.3l-0.7-4.1
		C88.1,229.8,87.8,229.4,87.3,229.2z M70.8,228.6c0.1,0,4.5-0.8,9.2,1.5l-17.4,3C66.2,229.4,70.7,228.6,70.8,228.6z M90.9,255.9
		c0.6,0.2,1.3,0.7,1.3,1.7c0,0.7-0.4,1.3-1.1,1.6c-0.6,0.2-1.2,0.1-1.7-0.2c-0.6-0.4-1.3-0.5-1.9-0.2c-4.6,2.2-10.9,3.3-10.9,3.3
		c-0.1,0-6.3,1.1-11.4,0.6c-0.7-0.1-1.4,0.2-1.7,0.8c-0.3,0.5-0.9,0.8-1.5,0.8c-0.7,0-1.3-0.5-1.5-1.1c-0.3-0.9,0.1-1.7,0.7-2
		c0.6-0.4,0.9-1.1,0.8-1.8c-1.1-7-2.2-15.4-2.5-18.2l26.4-4.6c0.6,2.7,2.4,11,3.8,18C89.7,255.2,90.2,255.7,90.9,255.9z M86.8,234.3
		l-14.6,2.5l-14.6,2.5L57,236l29.2-5.1L86.8,234.3z"/>
	<path class="st0" d="M77.9,245.7c-0.5-0.3-1.1-0.2-1.4,0.2l-2.2,3.1l-3.1-2.2c-0.3-0.2-0.8-0.2-1.1,0c-0.1,0-0.1,0.1-0.1,0.1
		c-0.1,0-0.1,0.1-0.2,0.1l0,0l-2.8,3.9c-0.3,0.5-0.2,1.1,0.2,1.4c0.3,0.2,0.7,0.2,1,0.1c0.1-0.1,0.3-0.2,0.4-0.3l2.2-3.1l3.1,2.2
		c0.3,0.2,0.7,0.2,1,0.1c0.1-0.1,0.3-0.2,0.4-0.3l0,0l2.2-3.1l3.1,2.2c0.3,0.2,0.7,0.2,1,0.1c0.1-0.1,0.3-0.2,0.4-0.3
		c0.3-0.5,0.2-1.1-0.2-1.4L77.9,245.7z"/>
</g>
<g>
	<path class="st0" d="M160.6,332.4c-0.4-1.1-1.4-1.8-2.5-1.7c-2.4-4.2-5.3-9-6.3-10.7c0,0,0.1,0,0.1-0.1c0.1-0.1,0.2-0.2,0.2-0.3
		c0.1-0.3,0.1-0.7,0-0.9l-1.3-2.4c-0.2-0.3-0.4-0.5-0.8-0.5c-0.3,0-0.6,0-0.8,0.2l-1.8,1c-4.7-1.4-8.6,0.8-8.7,0.9
		c-0.2,0.1-4,2.1-5.5,6.8l-1.8,1c-0.3,0.2-0.5,0.4-0.6,0.8c-0.1,0.3-0.1,0.5,0.1,0.8l1.3,2.4c0.2,0.3,0.4,0.5,0.8,0.5
		c0.2,0,0.4,0,0.5-0.1c0.8,1.7,3.3,6.8,5.5,11.1c-0.7,0.9-0.6,2.2,0.1,3c0.6,0.8,1.7,1.1,2.7,0.8c0.8-0.3,1.4-0.9,1.7-1.7
		c3.6-0.8,7.3-2.9,7.5-3s4-2.1,6.6-4.7c0.8,0.2,1.7,0.1,2.3-0.5c0.1-0.1,0.1-0.1,0.2-0.2C160.6,334.2,160.9,333.3,160.6,332.4z
		 M139.3,318.8c0,0,2.7-1.5,6.2-1.1l-10.5,5.7C136.5,320.3,139.2,318.9,139.3,318.8z M132.1,326.6l17.6-9.6l1.1,2l-8.8,4.8l-8.8,4.8
		L132.1,326.6z M158.9,334c-0.3,0.3-0.7,0.3-1.1,0.2c-0.4-0.1-0.9,0-1.3,0.3c-2.5,2.4-6.3,4.5-6.3,4.5s-3.8,2.1-7.2,2.8
		c-0.5,0.1-0.8,0.4-0.9,0.9c-0.1,0.4-0.4,0.7-0.8,0.8c-0.4,0.1-0.9,0-1.2-0.4c-0.4-0.5-0.3-1.1,0-1.4c0.3-0.4,0.3-0.9,0.1-1.3
		c-2.2-4.3-4.7-9.4-5.6-11.1l16-8.7c1,1.6,3.9,6.6,6.3,10.7c0.2,0.4,0.7,0.7,1.2,0.6c0.4,0,1,0.2,1.2,0.8
		C159.4,333.2,159.3,333.7,158.9,334z"/>
	<path class="st0" d="M150.7,329.1l-3.1-0.9c-0.4-0.1-0.7,0.1-0.8,0.5l-0.7,2.5l-2.5-0.7c-0.3-0.1-0.5,0-0.7,0.2c0,0,0,0.1-0.1,0.1
		l-0.1,0.1l0,0l-0.9,3.1c-0.1,0.4,0.1,0.7,0.5,0.8c0.2,0.1,0.5,0,0.7-0.2c0.1-0.1,0.1-0.2,0.2-0.3l0.7-2.5l2.5,0.7
		c0.1,0,0.3,0,0.4,0c0.1,0,0.2-0.1,0.3-0.2s0.1-0.2,0.2-0.3l0,0l0.7-2.5l2.5,0.7c0.2,0.1,0.5,0,0.7-0.2c0.1-0.1,0.1-0.2,0.2-0.3
		C151.2,329.6,151,329.3,150.7,329.1z"/>
</g>
<path class="st1" d="M172.8,362c0.7-0.8,0.7-1.3,0.7-1.5s-0.1-0.4-0.3-0.5c-0.1-0.1-0.6-0.3-1.6-0.1c-0.1-1-0.4-1.4-0.6-1.6
	c-0.2-0.1-0.4-0.2-0.6-0.1c-0.2,0-0.9,0.3-1.6,1.8c0,0-0.1,0.1-0.1,0.2c-1.6-1-3.6-1.1-5.3-0.1c-0.1,0.1-9.2,5.9-17.6,13.8
	c-0.7,0.7-0.8,1.8-0.3,2.6c0.5,0.8,1.5,1.2,2.4,1c5.8-1.8,11.1-4,14.9-5.8l0,0c3.5-1.6,5.7-2.8,5.8-2.8c1.7-1,2.6-2.8,2.5-4.7
	c0.2,0,0.3,0,0.3,0c1.7,0.1,2.2-0.4,2.4-0.5c0.1-0.2,0.2-0.4,0.2-0.6C173.8,363.1,173.6,362.6,172.8,362z M167.9,368
	c0,0-2.1,1.1-5.4,2.6c-0.3-0.3-1-1-1.7-2.1c-0.2-0.3-0.6-0.4-0.9-0.2c-0.3,0.2-0.4,0.6-0.2,0.8l0,0c0.6,0.9,1.1,1.5,1.5,1.9
	c-3.7,1.6-8.6,3.7-13.8,5.3c-0.4,0.1-0.8-0.1-1-0.4c-0.2-0.4-0.2-0.8,0.1-1.1c2.9-2.8,5.9-5.3,8.6-7.3c0.1,0.5,0.4,1.2,0.8,2l0,0
	c0.2,0.3,0.5,0.4,0.8,0.2c0.3-0.2,0.4-0.5,0.3-0.8c-0.5-1.1-0.8-1.9-0.9-2.3c1.7-1.3,3.2-2.4,4.4-3.3c0.2,0.6,0.5,1.4,1,2.4l0,0
	c0.2,0.3,0.5,0.4,0.8,0.2c0.3-0.2,0.4-0.5,0.3-0.8c-0.6-1.2-0.9-2.1-1-2.6c1.3-0.9,2.2-1.5,2.2-1.5c1.8-1.1,4.2-0.5,5.3,1.4
	C170.4,364.5,169.7,366.9,167.9,368z M171.4,363.2c0,0-0.3,0-0.6-0.1c-0.1-0.4-0.3-0.7-0.5-1.1c-0.2-0.3-0.4-0.6-0.7-0.9
	c0.1-0.3,0.2-0.5,0.2-0.5c0.1-0.3,0.3-0.5,0.4-0.7c0,0.2,0,0.5,0,0.8c0,0.2,0.1,0.4,0.2,0.5c0.2,0.1,0.4,0.2,0.6,0.1
	c0.3-0.1,0.6-0.2,0.8-0.2c-0.1,0.2-0.3,0.4-0.5,0.6c-0.1,0.1-0.2,0.3-0.2,0.5s0.2,0.4,0.3,0.5c0.3,0.1,0.5,0.3,0.7,0.4
	C171.9,363.2,171.7,363.2,171.4,363.2z"/>
<g>
	<path class="st0" d="M32.3,305.1c0-0.1-0.1-0.3-0.1-0.4c-0.1-0.2-0.2-0.4-0.3-0.6l0,0l0,0l0,0l0,0c-1.2-2.5-3.9-4-4.1-4.1
		c-7.4-3.8-9.6-0.5-9.8-0.1c-0.2,0.3-1.3,2.3,0.9,5.3l0,0c0.8,1,1.9,2.2,3.6,3.4c0.1,0.1,2.7,1.8,5.5,1.8l0,0l0,0l0,0l0,0
		c0.2,0,0.5,0,0.7,0c1.3-0.2,2.4-0.9,3.1-2C32.4,307.3,32.6,306.2,32.3,305.1z M30.8,307.7c-0.5,0.8-1.3,1.3-2.2,1.4
		c-0.2,0-0.4,0-0.5,0s-0.1,0-0.2,0c0.1-0.1,0.2-0.2,0.3-0.3c0.2-0.2,0.2-0.4,0.2-0.6c0-0.1-0.1-0.2-0.2-0.3c-0.2-0.2-0.6-0.2-0.8,0
		c-0.5,0.5-1.2,0.8-1.2,0.8l0,0c-1.6-0.5-2.8-1.3-2.8-1.3c-1.3-1-2.2-1.8-2.9-2.6c0.3-0.2,0.7-0.5,1.1-0.8c0.1-0.2,0.2-0.4,0.1-0.5
		c0-0.1-0.1-0.2-0.2-0.3c-0.2-0.2-0.6-0.2-0.8,0c-0.3,0.3-0.7,0.6-0.9,0.7c-1.4-2.2-0.6-3.5-0.6-3.5v-0.1c0,0,1.7-2.8,8.2,0.6
		c0,0,0.5,0.3,1.2,0.9c0,0.2-0.1,0.5-0.2,0.9c-0.1,0.3,0,0.7,0.3,0.8c0.3,0.1,0.7,0,0.8-0.3c0.1-0.1,0.1-0.3,0.1-0.4
		c0.5,0.5,1,1.1,1.4,1.8c0.1,0.2,0.1,0.3,0.2,0.5C31.4,305.9,31.2,306.9,30.8,307.7z"/>
	<path class="st0" d="M25.7,303.4c0,0,0.3-0.4,0.7-1.2c0.1-0.1,0.1-0.3,0-0.4c0-0.2-0.2-0.3-0.3-0.4c-0.3-0.1-0.7,0-0.8,0.3
		c-0.3,0.7-0.6,1-0.6,1c-0.2,0.3-0.1,0.6,0.1,0.8C25.2,303.7,25.5,303.6,25.7,303.4z"/>
	<path class="st0" d="M26.2,305.4c-0.3-0.2-0.6-0.1-0.8,0.1c-0.3,0.5-0.7,0.8-0.7,0.8c-0.3,0.2-0.3,0.6-0.1,0.8
		c0.2,0.3,0.6,0.3,0.8,0.1c0,0,0.5-0.4,0.9-1c0.1-0.1,0.1-0.3,0.1-0.5C26.4,305.6,26.3,305.5,26.2,305.4z"/>
</g>
<path class="st1" d="M178.9,269.5c-0.8-10.3-5.7-10.5-6.3-10.5s-5.5,0.2-6.3,10.5c0,0.2-0.1,4.1,1.7,7c0.1,0.1,0.2,0.2,0.3,0.3
	c0,0.2,0.1,0.3,0.2,0.4c1,1.2,2.5,1.9,4.1,1.9s3.1-0.7,4.1-1.9c0.1-0.1,0.1-0.3,0.2-0.4c0.1-0.1,0.3-0.1,0.3-0.3
	C179.1,273.6,179,269.7,178.9,269.5z M172.6,277.7c-1.2,0-2.2-0.5-3-1.4c-0.1-0.1-0.2-0.2-0.3-0.2c0-0.1,0-0.2-0.1-0.3
	c-1.6-2.5-1.5-6.1-1.5-6.1c0.7-9.2,4.7-9.1,4.8-9.1h0.1l0,0c0,0,4-0.1,4.8,9.1c0,0,0.1,3.6-1.5,6.2c-0.1,0.1-0.1,0.2-0.1,0.3
	c-0.1,0-0.2,0.1-0.3,0.2C174.9,277.2,173.8,277.7,172.6,277.7z"/>
<path class="st1" d="M169.1,276.8c-0.2-0.2-0.3-0.4-0.4-0.6C168.8,276.4,168.9,276.6,169.1,276.8z"/>
<path class="st1" d="M176.6,276.1c-0.1,0.2-0.3,0.4-0.4,0.6C176.4,276.6,176.5,276.4,176.6,276.1z"/>
<circle class="st1" cx="172.8" cy="274.5" r="0.4"/>
<circle class="st1" cx="175" cy="271.9" r="0.9"/>
<circle class="st1" cx="173.4" cy="264.4" r="0.6"/>
<circle class="st1" cx="171.3" cy="267.4" r="0.6"/>
<g>
	<polygon class="st0" points="53.5,293.3 47.8,290.2 48.3,289.1 53,291.6 55.7,286.5 60.9,289.2 63.6,284.2 68.8,286.8 71.5,281.8 
		76.7,284.4 79.2,279.9 80.3,280.5 77.2,286.1 72.1,283.4 69.3,288.5 64.2,285.8 61.4,290.9 56.3,288.2 	"/>
</g>
<g>
	<polygon class="st0" points="123.1,230.4 124.9,233.9 124.2,234.3 122.8,231.4 119.6,233 118,229.9 114.8,231.5 113.1,228.3 
		110,230 108.3,226.8 105.5,228.2 105.2,227.6 108.7,225.8 110.3,228.9 113.5,227.3 115.1,230.5 118.3,228.8 120,232 	"/>
</g>
<g>
	<polygon class="st0" points="182.7,239.1 179.2,244.5 178.2,243.9 181,239.5 176.2,236.5 179.2,231.6 174.4,228.6 177.4,223.7 
		172.6,220.7 175.6,215.9 171.3,213.2 172,212.1 177.3,215.5 174.3,220.3 179.1,223.3 176.1,228.2 180.9,231.2 177.9,236.1 	"/>
</g>
<g>
	<polygon class="st0" points="39.7,347.5 34.4,349.5 34,348.5 38.3,346.9 36.5,342.3 41.2,340.4 39.5,335.8 44.2,334 42.4,329.3 
		47.1,327.5 45.6,323.4 46.6,323 48.5,328.1 43.8,329.9 45.6,334.6 40.9,336.4 42.6,341.1 37.9,342.9 	"/>
</g>
<g>
	<polygon class="st0" points="104.6,383.5 99.9,381.7 100.2,380.8 104.1,382.3 105.7,378 110,379.6 111.6,375.4 115.9,377 
		117.5,372.8 121.8,374.4 123.3,370.6 124.2,370.9 122.4,375.6 118.1,374 116.5,378.3 112.2,376.7 110.6,380.9 106.3,379.3 	"/>
</g>
<path class="st2" d="M41.3,398.5c-0.6-0.6-1.1-1.3-1.6-2l-0.8,3.5h2L41.3,398.5z"/>
<path class="st2" d="M54.1,400H55c-0.2-0.3-0.3-0.6-0.5-0.9L54.1,400z"/>
<path class="st2" d="M70.7,397.6c1.1-3.3-0.1-7-3.1-8.9l-1.1-0.7l0.9-0.9c0.4-0.4,0.7-0.9,0.9-1.4c0.6-1.8-0.4-3.8-2.2-4.4
	c-0.5-0.2-1.1-0.2-1.7-0.1l-1.3,0.2l0.1-1.3c0.4-5.1-2.7-9.8-7.5-11.5c-5-1.7-10.3,0.3-13.1,4.7l-0.8,1.2l-0.9-1.1
	c-0.4-0.5-1-0.9-1.6-1.2c-1.8-0.6-3.8,0.4-4.4,2.2c-0.2,0.7-0.2,1.4,0,2.1l0.4,1.2l-1.2,0.1c-3,0.3-5.5,2.3-6.5,5.2
	c-1.4,4,0.8,8.4,4.8,9.8c2.1,0.7,4.5,0.5,6.4-0.7l1.3-0.8l0.2,1.5c0.5,2.8,2.4,5.2,5.1,6.1c3.1,1.1,6.6,0,8.6-2.6l1.3-1.7l0.4,2.1
	c0.3,1.2,0.8,2.4,1.6,3.3h11.8C69.9,399.3,70.4,398.5,70.7,397.6z M51.8,383.7c-0.2,0.5-0.7,0.8-1.3,0.6c-4-1.4-8.4,0.8-9.8,4.8
	c-0.2,0.5-0.7,0.8-1.3,0.6c-0.5-0.2-0.8-0.7-0.6-1.3c1.7-5.1,7.2-7.8,12.3-6.1C51.7,382.6,51.9,383.2,51.8,383.7z M53.5,372.1
	c-0.2,0.5-0.7,0.8-1.3,0.6c-1.8-0.6-3.8,0.4-4.4,2.2c-0.2,0.5-0.7,0.8-1.3,0.6c-0.5-0.2-0.8-0.7-0.6-1.3c1-2.9,4.1-4.4,6.9-3.4
	C53.4,371.1,53.6,371.6,53.5,372.1z M63.2,387.4c-2.4,0.1-4.7,1.3-6.1,3.3c-0.3,0.4-0.7,0.5-1.1,0.4c-0.1,0-0.2-0.1-0.2-0.1
	c-0.5-0.3-0.6-0.9-0.3-1.4c1.8-2.5,4.6-4.1,7.7-4.2c0.6,0,1,0.4,1,1C64.2,386.9,63.8,387.4,63.2,387.4z"/>
<path class="st2" d="M43.2,400c-0.1,0-0.2-0.1-0.2-0.1v0.1H43.2z"/>
<path class="st1" d="M51.1,382.4c-5.1-1.7-10.6,1-12.3,6.1c-0.2,0.5,0.1,1.1,0.6,1.3c0.5,0.2,1.1-0.1,1.3-0.6c1.4-4,5.7-6.2,9.8-4.8
	c0.5,0.2,1.1-0.1,1.3-0.6C51.9,383.2,51.7,382.6,51.1,382.4z"/>
<path class="st1" d="M63.2,385.4c-3.1,0.1-6,1.6-7.7,4.2c-0.3,0.5-0.2,1.1,0.3,1.4c0.1,0.1,0.2,0.1,0.2,0.1c0.4,0.1,0.9,0,1.1-0.4
	c1.4-2,3.7-3.2,6.1-3.3c0.6,0,1-0.5,1-1C64.2,385.8,63.7,385.4,63.2,385.4z"/>
<path class="st1" d="M52.8,370.9c-2.9-1-6,0.6-6.9,3.4c-0.2,0.5,0.1,1.1,0.6,1.3c0.5,0.2,1.1-0.1,1.3-0.6c0.6-1.8,2.6-2.8,4.4-2.2
	c0.5,0.2,1.1-0.1,1.3-0.6S53.4,371.1,52.8,370.9z"/>
<path class="st1" d="M69.6,387.6c0.3-0.4,0.5-0.9,0.7-1.3c1-2.9-0.6-6-3.4-6.9c-0.5-0.2-1-0.3-1.4-0.3c0-5.6-3.6-10.6-8.9-12.4
	c-5.4-1.8-11.3,0-14.7,4.5c-0.5-0.4-1-0.7-1.6-0.9c-2.9-1-6,0.6-6.9,3.4c-0.2,0.7-0.3,1.5-0.3,2.3c-3.3,0.7-6,3.1-7.1,6.4
	c-1.7,5.1,1,10.6,6.1,12.3c2,0.7,4.2,0.7,6.1,0L37,400h2l0.8-3.5c0.4,0.7,1,1.4,1.6,2l-0.3,1.5h2v-0.1c0.1,0,0.2,0.1,0.2,0.1h4.1H49
	h3h0.9h1.3l0.4-0.9c0.1,0.3,0.3,0.6,0.5,0.9h2.4c-0.8-0.9-1.4-2.1-1.6-3.3l-0.4-2.1l-1.3,1.7c-2,2.6-5.4,3.6-8.6,2.6
	c-2.7-0.9-4.7-3.2-5.1-6.1l-0.2-1.5l-1.3,0.8c-1.9,1.1-4.3,1.4-6.4,0.7c-4-1.4-6.2-5.7-4.8-9.8c1-2.8,3.5-4.9,6.5-5.2l1.2-0.1
	l-0.4-1.2c-0.2-0.7-0.2-1.4,0-2.1c0.6-1.8,2.6-2.8,4.4-2.2c0.6,0.2,1.2,0.6,1.6,1.2l0.9,1.1l0.8-1.2c2.7-4.5,8.1-6.4,13.1-4.7
	c4.9,1.6,8,6.4,7.5,11.5l-0.1,1.3l1.3-0.2c0.6-0.1,1.1,0,1.7,0.1c1.8,0.6,2.8,2.6,2.2,4.4c-0.2,0.5-0.5,1-0.9,1.4l-0.9,0.9l1.1,0.7
	c3,1.9,4.2,5.6,3.1,8.9c-0.3,0.9-0.8,1.7-1.4,2.4h2.4c0.3-0.6,0.6-1.2,0.8-1.8C73.9,394.3,72.7,390.2,69.6,387.6z"/>
<polygon class="st1" points="139.8,398.4 145.3,398.9 145.9,393.5 151.4,394.1 152.1,388.1 150.9,388 150.4,392.8 144.9,392.2 
	144.3,397.6 138.8,397.1 138.5,400 139.6,400 "/>
<g>
	<path class="st0" d="M58.4,211.4c-3.1,0.4-6.2-1-7.8-3.9c-0.7-1.3-1-2.7-0.9-4.1l-1.8-1.6c-0.5,2.2-0.2,4.6,1,6.7
		c2.3,4.1,7.1,5.9,11.4,4.6L58.4,211.4z"/>
	<path class="st0" d="M45.5,199.6l-2.2-2l-1.2-1.1l-3-2.7c0.2,0.6,0.4,1.2,0.7,1.7c0.3,0.6,0.7,1.1,1.1,1.5l-2.5,1.1
		c-0.5,0.2-0.7,0.8-0.5,1.3v0.1c0.2,0.4,0.8,0.6,1.3,0.4l3.3-1.4c0.8,0.6,1.6,1,2.5,1.4L30.3,206l-4.5-8.1l10.1-7.1l-1.5-1.4
		l-10.3,7.2c-0.5,0.3-0.7,1-0.4,1.6l5.2,9.4c0.3,0.6,1,0.8,1.6,0.5l16.7-7l-1-0.9L45.5,199.6z"/>
	<path class="st0" d="M35.3,194.8C35.3,194.8,35.4,194.8,35.3,194.8c0.4,0.5,1,0.7,1.5,0.3l2.2-1.5l-1.5-1.4l-1.8,1.3
		C35.2,193.8,35.1,194.3,35.3,194.8z"/>
</g>
<polygon class="st1" points="132.7,201.9 132.1,207.3 127.1,206.7 127,207.9 133.1,208.6 133.7,203.2 139.2,203.7 139.6,200 
	138.5,200 138.2,202.5 "/>
<path class="st2" d="M2,225.6c0.5-0.4,1.3-0.4,1.7,0.1s0.4,1.2,0,1.6l0,0c-1.4,1.3-2.7,2.2-3.6,2.8v0.5c2.2,1.8,4.8,4,7.9,6.4
	c0.7-0.4,2.1-1.2,3.9-2.7c0.5-0.4,1.3-0.4,1.7,0.1s0.4,1.2-0.1,1.6c0,0,0,0-0.1,0.1c-1.4,1.2-2.5,2-3.4,2.5
	c5.2,4,11.3,8.3,17.8,12.5c0.6,0.4,1.5,0.2,2-0.3s0.7-1.4,0.3-2.1c-5.6-8.9-11.7-17.1-16.6-23.1c-0.6,1-1.5,2.3-2.8,3.8
	c0,0,0,0-0.1,0.1c-0.4,0.4-1.2,0.5-1.6,0c-0.5-0.4-0.5-1.2-0.1-1.7c1.7-1.9,2.6-3.4,3-4.2c-4.4-5.4-7.4-8.7-7.5-8.7
	c-1.2-1.2-2.8-1.9-4.4-2.1v14.5C0.6,226.8,1.3,226.3,2,225.6z"/>
<path class="st1" d="M3.7,227.4c0.4-0.4,0.5-1.2,0-1.6c-0.4-0.5-1.2-0.5-1.7-0.1c-0.7,0.7-1.4,1.2-2,1.7v2.9
	C1,229.6,2.2,228.7,3.7,227.4C3.6,227.4,3.7,227.4,3.7,227.4z"/>
<path class="st1" d="M32.2,247.4c-6.2-9.8-12.9-18.7-18-24.9l0,0c-4.7-5.7-7.9-9.2-8-9.3c-1.7-1.7-3.9-2.7-6.2-2.8v2.4
	c1.6,0.2,3.2,0.9,4.4,2.1c0.1,0.1,3.1,3.4,7.5,8.7c-0.4,0.8-1.3,2.3-3,4.2c-0.4,0.5-0.4,1.3,0.1,1.7s1.2,0.4,1.6,0c0,0,0,0,0.1-0.1
	c1.4-1.5,2.3-2.8,2.8-3.8c4.9,6,11,14.2,16.6,23.1c0.4,0.7,0.3,1.5-0.3,2.1s-1.4,0.7-2,0.3c-6.6-4.1-12.7-8.5-17.8-12.5
	c0.9-0.5,2-1.3,3.4-2.5c0,0,0,0,0.1-0.1c0.4-0.4,0.5-1.1,0.1-1.6s-1.2-0.6-1.7-0.1c-1.8,1.6-3.2,2.4-3.9,2.7
	c-3.1-2.4-5.7-4.6-7.9-6.4v3.1c6.3,5.2,15.8,12.6,26.6,19.4c1.6,0.9,3.7,0.6,5-0.7C32.9,251.1,33.1,249.1,32.2,247.4z"/>
<polygon class="st1" points="2,292.6 2.3,284 11,284.2 11.2,275.6 19.9,275.8 20.2,266.3 18.4,266.3 18.1,273.9 9.4,273.7 
	9.2,282.3 0.5,282.1 0.2,290.7 0,290.7 0,292.6 "/>
<path class="st1" d="M211.6,231.1c0.1,0,0.1-0.1,0.2-0.1v-1.8c-0.6,0.4-1.1,0.7-1.4,0.9c-1.5-1.3-2.3-2.1-2.3-2.1
	c-1.4-1.5-1.7-3.6-0.8-5.4v-0.1c0.2-0.4,0.5-0.7,0.8-1.1c0.3-0.3,0.7-0.6,1.1-0.8h0.1c0.8-0.4,1.7-0.5,2.6-0.4v-1.5
	c-0.8-0.1-1.6,0-2.3,0.2c0-0.2,0-0.3,0-0.3c-0.4-1.9-1.1-2.5-1.3-2.6s-0.5-0.1-0.7,0s-0.7,0.4-1.1,1.6c-1.1-0.5-1.7-0.4-1.9-0.4
	c-0.2,0.1-0.4,0.3-0.5,0.5s-0.2,0.8,0.3,1.9c-1.2,0.4-1.5,0.9-1.6,1.1c-0.1,0.2-0.1,0.5,0,0.7s0.6,0.9,2.6,1.4c0,0,0.1,0,0.3,0.1
	c-0.7,2.1-0.2,4.5,1.4,6.2c0,0,1.8,1.7,4.7,4.2v-1.9C211.8,231.3,211.7,231.2,211.6,231.1z M205.7,221.4c-0.4-0.1-0.7-0.2-0.9-0.3
	c0.2-0.1,0.5-0.2,0.9-0.2c0.2,0,0.4-0.2,0.5-0.4s0.1-0.5-0.1-0.7c-0.2-0.3-0.3-0.6-0.4-0.8c0.2,0.1,0.5,0.2,0.8,0.5
	c0.2,0.1,0.5,0.2,0.7,0.1c0.2-0.1,0.4-0.3,0.4-0.5c0.1-0.4,0.2-0.7,0.3-0.9c0.1,0.2,0.2,0.5,0.2,0.9c0,0,0.1,0.3,0.1,0.7
	c-0.4,0.2-0.8,0.5-1.1,0.8s-0.6,0.7-0.9,1.1C205.9,221.5,205.7,221.4,205.7,221.4z"/>
<polygon class="st1" points="191.3,299.1 183.4,298.8 183.4,300.7 193.1,301 193.3,292.4 200,292.6 200,290.7 191.5,290.5 "/>
<path class="st2" d="M198.3,320.7c0.3,0.5,0.2,1.1-0.3,1.4c-0.2,0.1-0.4,0.2-0.5,0.2c-0.3,0-0.6-0.2-0.8-0.5c-0.5-0.7-0.8-1.5-1-2.1
	c-1.5,0.8-3.3,2-5.4,3.7c0,0-1.8,1.7-3.2,4.1l0,0c0,0,0.3,1.4,0.8,2.3c0.3,0.5,0.1,1.1-0.3,1.4c-0.2,0.1-0.3,0.1-0.5,0.1
	c-0.3,0-0.7-0.2-0.9-0.5c-0.1-0.2-0.2-0.4-0.3-0.6c0,0.1-0.1,0.2-0.1,0.3c-0.1,0.3-0.1,0.6-0.2,0.9c-0.1,1.6,0.4,3.1,1.5,4.2
	s2.6,1.7,4.2,1.5c0.3,0,0.6-0.1,0.9-0.2c1.3-0.3,2.5-0.9,3.5-1.5c-0.2-0.1-0.4-0.2-0.6-0.4c-0.5-0.3-0.6-0.9-0.2-1.4
	c0.3-0.5,0.9-0.6,1.4-0.2s1,0.6,1.3,0.7c1.1-0.9,1.9-1.7,1.9-1.7c0.2-0.2,0.4-0.5,0.6-0.7v-13.6c-0.7,0-1.6,0.2-2.5,0.5
	C197.6,319.4,197.8,320.1,198.3,320.7z M192.6,329.2c-0.2,0.2-0.4,0.3-0.7,0.3s-0.5-0.1-0.7-0.3c-0.9-1-1.3-1.8-1.3-1.9
	c-0.2-0.5,0-1.1,0.5-1.3c0.5-0.2,1.1,0,1.3,0.5c0,0,0.3,0.7,1,1.4C193,328.2,193,328.9,192.6,329.2z M199.3,330.6
	c-0.2,0.2-0.5,0.4-0.8,0.4c-0.2,0-0.4-0.1-0.6-0.2c-1.2-1-1.7-1.5-1.8-1.6c-0.4-0.4-0.3-1.1,0.1-1.4c0.4-0.4,1-0.3,1.4,0.1
	c0,0,0.4,0.5,1.5,1.3C199.5,329.6,199.6,330.2,199.3,330.6z"/>
<path class="st1" d="M199.4,332.6c0,0-0.7,0.8-1.9,1.7c-0.3-0.1-0.8-0.4-1.3-0.7c-0.5-0.3-1.1-0.2-1.4,0.2c-0.3,0.5-0.2,1.1,0.2,1.4
	c0.2,0.1,0.4,0.3,0.6,0.4c-1.1,0.6-2.3,1.2-3.5,1.5c-0.3,0.1-0.6,0.1-0.9,0.2c-1.6,0.1-3.1-0.4-4.2-1.5c-1.1-1.1-1.7-2.6-1.5-4.2
	c0-0.3,0.1-0.6,0.2-0.9c0-0.1,0.1-0.2,0.1-0.3c0.1,0.2,0.2,0.4,0.3,0.6c0.2,0.3,0.5,0.5,0.9,0.5c0.2,0,0.4,0,0.5-0.1
	c0.5-0.3,0.6-0.9,0.3-1.4c-0.6-0.9-0.8-2.3-0.8-2.3l0,0c1.4-2.4,3.2-4.1,3.2-4.1c2.1-1.8,3.9-3,5.4-3.7c0.2,0.6,0.5,1.3,1,2.1
	c0.2,0.3,0.5,0.5,0.8,0.5c0.2,0,0.4-0.1,0.5-0.2c0.5-0.3,0.6-0.9,0.3-1.4c-0.4-0.6-0.7-1.3-0.8-1.8c1-0.3,1.8-0.5,2.5-0.5v-2
	c-1.2,0.1-2.5,0.4-4.1,1l0,0c-2,0.8-4.3,2.3-6.9,4.5c-0.2,0.2-4,3.7-5.1,8.3l0,0l0,0l0,0l0,0c-0.1,0.4-0.2,0.7-0.2,1.1
	c-0.2,2.2,0.6,4.3,2.1,5.8c1.4,1.4,3.2,2.1,5.1,2.1c0.2,0,0.5,0,0.7,0c0.4,0,0.7-0.1,1.1-0.2l0,0l0,0l0,0l0,0c3.2-0.8,6-2.9,7.4-4.2
	v-3C199.8,332.2,199.6,332.4,199.4,332.6z"/>
<path class="st1" d="M197.6,327.9c-0.4-0.4-1-0.5-1.4-0.1s-0.5,1-0.1,1.4c0.1,0.1,0.5,0.6,1.8,1.6c0.2,0.1,0.4,0.2,0.6,0.2
	c0.3,0,0.6-0.1,0.8-0.4c0.3-0.4,0.3-1.1-0.2-1.4C198.1,328.4,197.6,327.9,197.6,327.9z"/>
<path class="st1" d="M191.7,326.4c-0.2-0.5-0.8-0.7-1.3-0.5s-0.7,0.8-0.5,1.3c0,0,0.4,0.9,1.3,1.9c0.2,0.2,0.5,0.3,0.7,0.3
	s0.5-0.1,0.7-0.3c0.4-0.4,0.4-1,0.1-1.4C192,327.1,191.7,326.4,191.7,326.4z"/>
<polygon class="st1" points="199.2,365.4 198.7,358.7 192,359.1 191.5,352.4 184.9,352.8 184.5,346.7 183.1,346.8 183.5,354.3 
	190.2,353.9 190.7,360.6 197.4,360.2 197.8,367 200,366.8 200,365.4 "/>
<path class="st1" d="M0.9,334c9-10.6,4.6-15.5,4-16c-0.3-0.3-1.9-1.8-4.9-1.6v2c2.4-0.2,3.4,0.9,3.4,0.9l0.1,0.1
	c0,0,3.7,3.6-3.5,12.5v2.9C0.5,334.4,0.9,334,0.9,334z"/>
<polygon class="st1" points="5,373.3 12.4,372.8 12.3,371.4 6.3,371.8 5.8,365 0,365.4 0,366.8 4.5,366.6 "/>
<g>
	<g>
		<path class="st0" d="M294,341.2l-12.6-1.3c-0.8-0.1-1.4-0.8-1.3-1.6l1.9-18.5c0-0.1,0.4-2.7,1.7-4.5c0.2-0.2,0.4-0.5,0.5-0.7
			c0.9-1.2,1.4-1.8,1.6-3.4c0.2-1.5,0.8-2.9,1.3-3.9c0.2-0.4,0.4-0.9,0.4-1v-0.1c0,0,0.3-1,0-1.9c-0.3-1.2,0.3-1.9,0.7-2.1l0.2-0.1
			l6.3,0.7l0.2,0.1c0.3,0.3,0.8,1.1,0.3,2.2c-0.4,0.8-0.4,1.8-0.4,1.8v0.1c0,0.1,0.1,0.7,0.2,1.1c0.3,1.1,0.6,2.6,0.5,4.1
			c-0.2,1.6,0.2,2.3,0.8,3.7c0.1,0.2,0.2,0.5,0.4,0.7c1,2.1,0.8,4.7,0.8,4.8l-1.9,18.5C295.5,340.7,294.8,341.3,294,341.2z
			 M289.1,306.4c-0.1,0.4-0.3,0.8-0.6,1.4c-0.4,0.9-1.1,2.2-1.2,3.4c-0.2,2.1-0.9,2.9-1.9,4.2c-0.2,0.2-0.3,0.4-0.5,0.6
			c-1.1,1.5-1.4,3.8-1.4,3.8l-1.9,18.5l12.6,1.3l1.9-18.5c0,0,0.2-2.3-0.6-4c-0.1-0.3-0.2-0.5-0.4-0.7c-0.7-1.4-1.2-2.4-1-4.5
			c0.1-1.3-0.2-2.6-0.4-3.6c-0.2-0.7-0.3-1.1-0.3-1.5c0-0.3,0-1.5,0.5-2.6c0-0.1,0.1-0.1,0.1-0.2l-5-0.5c0,0.1,0,0.1,0,0.2
			C289.4,304.9,289.1,306.2,289.1,306.4z"/>
	</g>
	<g>
		<path class="st0" d="M291.1,336.4l-5.9-0.6c-0.8-0.1-1.4-0.8-1.3-1.6l1.2-11.3c0.1-0.8,0.8-1.4,1.6-1.3l5.9,0.6
			c0.8,0.1,1.4,0.8,1.3,1.6l-1.2,11.3C292.7,335.9,291.9,336.5,291.1,336.4z M286.6,323l-1.2,11.3l5.9,0.6l1.2-11.3L286.6,323z"/>
	</g>
	<g>
		<path class="st0" d="M286.4,317.4c-0.1,0-0.3-0.1-0.4-0.1c-0.3-0.2-0.4-0.7-0.1-1c0.2-0.2,0.4-0.5,0.5-0.7
			c0.9-1.2,1.4-1.8,1.6-3.4c0-0.4,0.4-0.7,0.8-0.7s0.7,0.4,0.7,0.8c-0.2,2.1-0.9,2.9-1.9,4.2c-0.2,0.2-0.3,0.4-0.5,0.6
			S286.7,317.5,286.4,317.4z"/>
	</g>
	<g>
		<path class="st0" d="M289.1,310.8c-0.4,0-0.7-0.4-0.7-0.8s0.2-0.7,0.3-0.9c0-0.1,0.1-0.2,0.1-0.3c0.1-0.4,0.6-0.6,1-0.5
			s0.6,0.6,0.5,1c0,0.1-0.1,0.3-0.2,0.4c-0.1,0.2-0.2,0.4-0.2,0.5C289.9,310.5,289.5,310.8,289.1,310.8z"/>
	</g>
</g>
<g>
	<g>
		<path class="st0" d="M360.3,246.2l-6.8,5.4c-0.4,0.4-1.1,0.3-1.4-0.2l-8-10c-0.1-0.1-1.1-1.5-1.3-3.1c0-0.2,0-0.4-0.1-0.6
			c-0.1-1-0.2-1.5-0.9-2.4c-0.7-0.8-1-1.8-1.3-2.6c-0.1-0.3-0.2-0.6-0.3-0.7v-0.1c0,0-0.4-0.6-0.9-0.9c-0.7-0.4-0.8-1.1-0.7-1.4
			v-0.1l3.4-2.7h0.2c0.3,0,0.9,0.1,1.2,0.9c0.2,0.6,0.7,1.1,0.7,1.1l0.1,0.1c0.1,0.1,0.4,0.3,0.6,0.4c0.7,0.4,1.6,1,2.2,1.8
			c0.7,0.9,1.2,1.1,2.2,1.4c0.2,0.1,0.3,0.1,0.5,0.2c1.5,0.5,2.6,1.9,2.7,2l8,10C360.8,245.2,360.7,245.8,360.3,246.2z M341,231.6
			c0.2,0.2,0.3,0.5,0.4,1c0.2,0.7,0.5,1.6,1.1,2.3c0.9,1.1,1,1.8,1.1,2.9c0,0.2,0,0.4,0.1,0.6c0.2,1.3,1.1,2.5,1.1,2.6l8,10l6.8-5.4
			l-8-10c0,0-1-1.2-2.2-1.7c-0.2-0.1-0.4-0.1-0.5-0.2c-1-0.4-1.7-0.6-2.6-1.7c-0.5-0.7-1.4-1.2-2-1.5c-0.4-0.2-0.7-0.4-0.9-0.6
			c-0.1-0.1-0.8-0.7-1-1.5c0-0.1,0-0.1-0.1-0.1l-2.7,2.2l0.1,0.1C340.5,230.7,340.9,231.4,341,231.6z"/>
	</g>
	<g>
		<path class="st0" d="M356.5,245.2l-3.2,2.5c-0.4,0.4-1.1,0.3-1.4-0.2l-4.9-6.1c-0.4-0.4-0.3-1.1,0.2-1.4l3.2-2.5
			c0.4-0.4,1.1-0.3,1.4,0.2l4.9,6.1C357,244.2,357,244.9,356.5,245.2z M347.8,240.9l4.9,6.1l3.2-2.5l-4.9-6.1L347.8,240.9z"/>
	</g>
	<g>
		<path class="st0" d="M345.1,238.2c-0.1,0.1-0.2,0.1-0.3,0.1c-0.3,0-0.5-0.2-0.6-0.4c0-0.2,0-0.4-0.1-0.6c-0.1-1-0.2-1.5-0.9-2.4
			c-0.2-0.2-0.1-0.5,0.1-0.7s0.5-0.1,0.7,0.1c0.9,1.1,1,1.8,1.1,2.9c0,0.2,0,0.4,0.1,0.6C345.3,238,345.2,238.1,345.1,238.2z"/>
	</g>
	<g>
		<path class="st0" d="M343.2,233.7c-0.2,0.2-0.5,0.1-0.7-0.1c-0.2-0.2-0.2-0.4-0.3-0.6c0-0.1-0.1-0.1-0.1-0.2
			c-0.1-0.3,0-0.6,0.2-0.7c0.3-0.1,0.6,0,0.7,0.2c0,0.1,0.1,0.2,0.1,0.3s0.1,0.3,0.2,0.3C343.4,233.2,343.4,233.5,343.2,233.7z"/>
	</g>
</g>
<g>
	<path class="st0" d="M330.4,275.2c-3.1-1.6-6.9-0.4-8.4,2.7c-0.2,0.3,0,0.7,0.3,0.9c0.3,0.2,0.7,0,0.9-0.3c1.2-2.4,4.2-3.4,6.7-2.1
		c0.3,0.2,0.7,0,0.9-0.3C330.9,275.7,330.7,275.4,330.4,275.2z"/>
	<path class="st0" d="M337.9,278.2c-2-0.2-4,0.5-5.3,1.9c-0.2,0.3-0.2,0.7,0,0.9l0.1,0.1c0.3,0.1,0.6,0.1,0.8-0.1
		c1.1-1.1,2.7-1.7,4.2-1.5c0.4,0,0.7-0.2,0.7-0.6C338.5,278.6,338.2,278.3,337.9,278.2z"/>
	<path class="st0" d="M328.9,270.1c0.6-1.1,1.9-1.5,3-1c0.3,0.2,0.7,0,0.9-0.3c0.2-0.3,0-0.7-0.3-0.9c-1.7-0.9-3.9-0.2-4.7,1.5
		c-0.2,0.3,0,0.7,0.3,0.9C328.4,270.6,328.8,270.4,328.9,270.1z"/>
	<path class="st0" d="M342.8,287.3c1.2-2.3,0.8-5.1-1-7c0.2-0.2,0.4-0.5,0.5-0.8c0.9-1.7,0.2-3.8-1.6-4.7c-0.3-0.1-0.6-0.2-0.9-0.3
		c0.5-3.6-1.3-7.1-4.6-8.7c-3.3-1.7-7.3-1.1-9.8,1.5c-0.3-0.3-0.6-0.5-1-0.7c-1.7-0.9-3.9-0.2-4.7,1.5c-0.2,0.4-0.4,0.9-0.4,1.4
		c-2.2,0.1-4.1,1.4-5.1,3.4c-1.6,3.1-0.3,6.8,2.8,8.4c1.2,0.6,2.6,0.8,3.9,0.6l-4.1,10.8c-0.2,0.4,0,0.8,0.4,1l6.2,3.1
		c0.4,0.2,0.8,0.1,1-0.3l6.7-10.3c0.5,1.7,1.6,3.1,3.2,3.9C337.4,291.6,341.2,290.3,342.8,287.3z M318.2,292.7l3.6-9.6
		c0.2,0.5,0.5,1,0.8,1.4l-0.8,2.2c-0.1,0.3,0,0.7,0.3,0.8c0,0,0,0,0.1,0c0.3,0.1,0.7,0,0.8-0.4l0.6-1.7c0.4,0.3,0.7,0.5,1.1,0.8
		c0.4,0.2,0.7,0.3,1.1,0.4l-1,1.5c-0.2,0.3-0.1,0.7,0.2,0.9c0,0,0,0,0.1,0c0.3,0.1,0.7,0.1,0.8-0.2l1.3-1.9c0.6,0,1.2,0,1.8-0.2
		l-5.6,8.6L318.2,292.7z M334.9,288.8c-1.6-0.8-2.6-2.4-2.7-4.1l-0.1-1.4l-1,1c-1.5,1.5-3.8,1.8-5.7,0.8c-1.7-0.8-2.7-2.5-2.7-4.4
		v-0.9l-0.9,0.4c-1.3,0.5-2.9,0.5-4.2-0.2c-2.5-1.2-3.4-4.2-2.2-6.7c0.9-1.7,2.7-2.8,4.6-2.7h0.8l-0.1-0.8c-0.1-0.5,0-0.9,0.2-1.4
		c0.6-1.1,1.9-1.5,3-1c0.4,0.2,0.7,0.5,0.9,0.9l0.5,0.8l0.6-0.7c2.2-2.6,5.8-3.3,8.8-1.8s4.5,4.8,3.8,8l-0.2,0.8h0.8
		c0.4,0,0.7,0.1,1.1,0.2c1.1,0.6,1.6,1.9,1,3c-0.2,0.3-0.4,0.6-0.7,0.8l-0.7,0.5l0.6,0.5c1.7,1.5,2.2,4,1.2,6
		C340.4,289.1,337.4,290.1,334.9,288.8z"/>
</g>
<g>
	<path class="st0" d="M295.7,252.7c0-0.4-0.1-0.8-0.3-1.2l-1.7-2.6c1.4-7.2-2.3-12.5-2.4-12.7s-3.6-5.7-10.8-7.2l-1.7-2.6
		c-0.3-0.4-0.7-0.7-1.2-0.8c-0.4-0.1-0.8,0-1.1,0.2l-3.4,2.3c-0.4,0.3-0.6,0.7-0.7,1.2c0,0.3,0.1,0.5,0.2,0.8
		c-2.4,1.5-9.6,5.8-15.6,9.6c-1.4-0.9-3.2-0.7-4.5,0.5c-1.1,1-1.5,2.7-0.9,4.1c0.5,1.2,1.5,2,2.7,2.2c1.6,5.1,5.2,10.4,5.3,10.6
		s3.6,5.6,7.7,9.1c-0.3,1.2,0.1,2.5,1,3.4c0.1,0.1,0.2,0.2,0.3,0.3c1.1,0.9,2.5,1.1,3.8,0.5c1.5-0.7,2.4-2.3,2.2-3.9
		c5.8-4,12.6-9,14.9-10.6l0.1,0.1c0.2,0.1,0.3,0.2,0.5,0.3c0.5,0.2,1,0.1,1.4-0.1l3.4-2.3C295.4,253.6,295.7,253.2,295.7,252.7z
		 M289.6,237.4c0,0,2.6,3.8,2.4,9l-9.8-14.7C287.1,233.5,289.6,237.3,289.6,237.4z M272.7,266.7c0.1,0.7-0.2,1.5-1,1.9
		c-0.6,0.3-1.4,0.1-1.9-0.4c-0.4-0.4-0.6-1-0.5-1.6c0.2-0.7-0.1-1.4-0.6-1.8c-3.9-3.3-7.4-8.6-7.4-8.7s-3.6-5.3-5.1-10.2
		c-0.2-0.7-0.8-1.1-1.4-1.3c-0.6-0.1-1.1-0.5-1.3-1.1c-0.3-0.6-0.1-1.4,0.4-1.9c0.7-0.6,1.6-0.6,2.1-0.2c0.6,0.4,1.4,0.4,2,0
		c6-3.8,13.3-8.2,15.7-9.6l14.8,22.4c-2.3,1.7-9.1,6.6-15,10.7C272.8,265.3,272.5,266,272.7,266.7z M290.8,254.3l-8.2-12.3
		l-8.2-12.3l2.8-1.8l16.3,24.7L290.8,254.3z"/>
	<path class="st0" d="M276.9,250.7c0.1-0.5-0.2-1.1-0.8-1.2l-3.7-0.8l0.8-3.7c0.1-0.4-0.1-0.8-0.4-1c-0.1,0-0.1,0-0.2-0.1
		c-0.1,0-0.1-0.1-0.2-0.1l0,0l-4.7-1c-0.5-0.1-1.1,0.2-1.2,0.8c-0.1,0.4,0.1,0.7,0.3,1c0.1,0.1,0.3,0.2,0.4,0.2l3.7,0.8l-0.8,3.7
		c-0.1,0.4,0.1,0.7,0.3,1c0.1,0.1,0.3,0.2,0.4,0.2l0,0l3.7,0.8l-0.8,3.7c-0.1,0.4,0.1,0.7,0.3,1c0.1,0.1,0.3,0.2,0.4,0.2
		c0.5,0.1,1.1-0.2,1.2-0.8L276.9,250.7z"/>
</g>
<g>
	<path class="st0" d="M351.4,351.1c0.5-1.3,0.2-2.7-0.8-3.6c1.3-5.6,2.6-12.3,3-14.6c0.1,0,0.1,0,0.2,0c0.2,0,0.3,0,0.5-0.1
		c0.4-0.2,0.7-0.5,0.7-0.8l0.8-3.3c0.1-0.4,0-0.8-0.3-1.1c-0.2-0.2-0.5-0.4-0.8-0.5l-2.4-0.6c-3.1-5-8.2-6.2-8.4-6.2
		c-0.2-0.1-5.3-1.4-10.4,1.7l-2.4-0.6c-0.4-0.1-0.8,0-1.2,0.2c-0.3,0.2-0.5,0.4-0.6,0.7l-0.8,3.3c-0.1,0.4,0,0.8,0.3,1.1
		c0.1,0.2,0.3,0.3,0.5,0.4c-0.6,2.2-2.5,8.8-4,14.3c-1.3,0.3-2.3,1.4-2.4,2.8c-0.1,1.2,0.6,2.4,1.7,2.9c0.9,0.4,2,0.4,2.9-0.2
		c3.8,2.2,8.8,3.3,9,3.4s5.2,1.3,9.6,1.1c0.5,0.9,1.4,1.4,2.5,1.5c0.1,0,0.2,0,0.3,0C350,352.9,351,352.2,351.4,351.1z M343.4,322
		c0,0,3.6,0.8,6.4,4.1l-14-3.4C339.8,321,343.3,322,343.4,322z M330.7,323.1l23.4,5.7l-0.6,2.6l-11.7-2.8l-11.7-2.8L330.7,323.1z
		 M348.6,351.3c-0.5,0-0.9-0.3-1.2-0.7c-0.3-0.5-0.8-0.8-1.4-0.8c-4.1,0.2-9.2-1.1-9.2-1.1c-0.1,0-5.1-1.2-8.7-3.3
		c-0.5-0.3-1.1-0.3-1.6,0c-0.4,0.3-0.9,0.3-1.4,0.1c-0.5-0.2-0.8-0.8-0.8-1.3c0-0.8,0.6-1.2,1.1-1.3c0.6-0.1,1-0.5,1.2-1.1
		c1.5-5.6,3.4-12.2,4-14.4l21.2,5.2c-0.4,2.2-1.8,9-3,14.6c-0.1,0.6,0.1,1.1,0.5,1.5c0.4,0.3,0.7,1,0.4,1.7
		C349.7,351,349.2,351.3,348.6,351.3z"/>
	<path class="st0" d="M345.2,340.3l-2-3.3c-0.2-0.4-0.7-0.5-1.1-0.3l-2.6,1.6l-1.6-2.7c-0.2-0.3-0.5-0.4-0.8-0.4H337
		c-0.1,0-0.1,0-0.2,0.1l0,0l-3.3,2c-0.4,0.2-0.5,0.7-0.3,1.1c0.2,0.3,0.5,0.4,0.7,0.4c0.1,0,0.3,0,0.4-0.1l2.6-1.6l1.6,2.7
		c0.1,0.1,0.2,0.2,0.3,0.3c0.1,0.1,0.3,0.1,0.4,0.1s0.3,0,0.4-0.1l0,0l2.6-1.6l1.6,2.6c0.2,0.3,0.5,0.4,0.7,0.4c0.1,0,0.3,0,0.4-0.1
		C345.3,341.2,345.4,340.7,345.2,340.3z"/>
</g>
<path class="st1" d="M372.9,362c0.7-0.8,0.7-1.3,0.7-1.5s-0.1-0.4-0.3-0.5c-0.1-0.1-0.6-0.3-1.6-0.1c-0.1-1-0.4-1.4-0.6-1.6
	c-0.2-0.1-0.4-0.2-0.6-0.1c-0.2,0-0.9,0.3-1.6,1.8c0,0-0.1,0.1-0.1,0.2c-1.6-1-3.6-1.1-5.3-0.1c-0.1,0.1-9.2,5.9-17.6,13.8
	c-0.7,0.7-0.8,1.8-0.3,2.6c0.5,0.8,1.5,1.2,2.4,1c5.8-1.8,11.1-4,14.9-5.8l0,0c3.5-1.6,5.7-2.8,5.8-2.8c1.7-1,2.6-2.8,2.5-4.7
	c0.2,0,0.3,0,0.3,0c1.7,0.1,2.2-0.4,2.4-0.5c0.1-0.2,0.2-0.4,0.2-0.6C374,363.1,373.8,362.6,372.9,362z M368.1,368
	c0,0-2.1,1.1-5.4,2.6c-0.3-0.3-1-1-1.7-2.1c-0.2-0.3-0.6-0.4-0.9-0.2c-0.3,0.2-0.4,0.6-0.2,0.8l0,0c0.6,0.9,1.1,1.5,1.5,1.9
	c-3.7,1.6-8.6,3.7-13.8,5.3c-0.4,0.1-0.8-0.1-1-0.4c-0.2-0.4-0.2-0.8,0.1-1.1c2.9-2.8,5.9-5.3,8.6-7.3c0.1,0.5,0.4,1.2,0.8,2l0,0
	c0.2,0.3,0.5,0.4,0.8,0.2c0.3-0.2,0.4-0.5,0.3-0.8c-0.5-1.1-0.8-1.9-0.9-2.3c1.7-1.3,3.2-2.4,4.4-3.3c0.2,0.6,0.5,1.4,1,2.4l0,0
	c0.2,0.3,0.5,0.4,0.8,0.2c0.3-0.2,0.4-0.5,0.3-0.8c-0.6-1.2-0.9-2.1-1-2.6c1.3-0.9,2.2-1.5,2.2-1.5c1.8-1.1,4.2-0.5,5.3,1.4
	C370.5,364.5,369.9,366.9,368.1,368z M371.6,363.2c0,0-0.3,0-0.6-0.1c-0.1-0.4-0.3-0.7-0.5-1.1c-0.2-0.3-0.4-0.6-0.7-0.9
	c0.1-0.3,0.2-0.5,0.2-0.5c0.1-0.3,0.3-0.5,0.4-0.7c0,0.2,0,0.5,0,0.8c0,0.2,0.1,0.4,0.2,0.5c0.2,0.1,0.4,0.2,0.6,0.1
	c0.3-0.1,0.6-0.2,0.8-0.2c-0.1,0.2-0.3,0.4-0.5,0.6c-0.1,0.1-0.2,0.3-0.2,0.5s0.2,0.4,0.3,0.5c0.3,0.1,0.5,0.3,0.7,0.4
	C372.1,363.2,371.9,363.2,371.6,363.2z"/>
<g>
	<path class="st0" d="M232.3,305.1c0-0.1-0.1-0.3-0.1-0.4c-0.1-0.2-0.2-0.4-0.3-0.6l0,0l0,0l0,0l0,0c-1.2-2.5-3.9-4-4.1-4.1
		c-7.4-3.8-9.6-0.5-9.8-0.1c-0.2,0.3-1.3,2.3,0.9,5.3l0,0c0.8,1,1.9,2.2,3.6,3.4c0.1,0.1,2.7,1.8,5.5,1.8l0,0l0,0l0,0l0,0
		c0.2,0,0.5,0,0.7,0c1.3-0.2,2.4-0.9,3.1-2C232.4,307.3,232.6,306.2,232.3,305.1z M230.8,307.7c-0.5,0.8-1.3,1.3-2.2,1.4
		c-0.2,0-0.4,0-0.5,0s-0.1,0-0.2,0c0.1-0.1,0.2-0.2,0.3-0.3c0.2-0.2,0.2-0.4,0.2-0.6c0-0.1-0.1-0.2-0.2-0.3c-0.2-0.2-0.6-0.2-0.8,0
		c-0.5,0.5-1.2,0.8-1.2,0.8l0,0c-1.6-0.5-2.8-1.3-2.8-1.3c-1.3-1-2.2-1.8-2.9-2.6c0.3-0.2,0.7-0.5,1.1-0.8c0.1-0.2,0.2-0.4,0.1-0.5
		c0-0.1-0.1-0.2-0.2-0.3c-0.2-0.2-0.6-0.2-0.8,0c-0.3,0.3-0.7,0.6-0.9,0.7c-1.4-2.2-0.6-3.5-0.6-3.5v-0.1c0,0,1.7-2.8,8.2,0.6
		c0,0,0.5,0.3,1.2,0.9c0,0.2-0.1,0.5-0.2,0.9c-0.1,0.3,0,0.7,0.3,0.8c0.3,0.1,0.7,0,0.8-0.3c0.1-0.1,0.1-0.3,0.1-0.4
		c0.5,0.5,1,1.1,1.4,1.8c0.1,0.2,0.1,0.3,0.2,0.5C231.4,305.9,231.2,306.9,230.8,307.7z"/>
	<path class="st0" d="M225.7,303.4c0,0,0.3-0.4,0.7-1.2c0.1-0.1,0.1-0.3,0-0.4c0-0.2-0.2-0.3-0.3-0.4c-0.3-0.1-0.7,0-0.8,0.3
		c-0.3,0.7-0.6,1-0.6,1c-0.2,0.3-0.1,0.6,0.1,0.8C225.2,303.7,225.5,303.6,225.7,303.4z"/>
	<path class="st0" d="M226.2,305.4c-0.3-0.2-0.6-0.1-0.8,0.1c-0.3,0.5-0.7,0.8-0.7,0.8c-0.3,0.2-0.3,0.6-0.1,0.8
		c0.2,0.3,0.6,0.3,0.8,0.1c0,0,0.5-0.4,0.9-1c0.1-0.1,0.1-0.3,0.1-0.5C226.4,305.6,226.3,305.5,226.2,305.4z"/>
</g>
<path class="st1" d="M378.9,269.5c-0.8-10.3-5.7-10.5-6.3-10.5c-0.6,0-5.5,0.2-6.3,10.5c0,0.2-0.1,4.1,1.7,7
	c0.1,0.1,0.2,0.2,0.3,0.3c0,0.2,0.1,0.3,0.2,0.4c1,1.2,2.5,1.9,4.1,1.9s3.1-0.7,4.1-1.9c0.1-0.1,0.1-0.3,0.2-0.4s0.3-0.1,0.3-0.3
	C379.1,273.6,379,269.7,378.9,269.5z M372.6,277.7c-1.2,0-2.2-0.5-3-1.4c-0.1-0.1-0.2-0.2-0.3-0.2c0-0.1,0-0.2-0.1-0.3
	c-1.6-2.5-1.5-6.1-1.5-6.1c0.7-9.2,4.7-9.1,4.8-9.1h0.1l0,0c0,0,4-0.1,4.8,9.1c0,0,0.1,3.6-1.5,6.2c-0.1,0.1-0.1,0.2-0.1,0.3
	c-0.1,0-0.2,0.1-0.3,0.2C374.9,277.2,373.8,277.7,372.6,277.7z"/>
<path class="st1" d="M369.1,276.8c-0.2-0.2-0.3-0.4-0.4-0.6C368.8,276.4,368.9,276.6,369.1,276.8z"/>
<path class="st1" d="M376.6,276.1c-0.1,0.2-0.3,0.4-0.4,0.6C376.4,276.6,376.5,276.4,376.6,276.1z"/>
<circle class="st1" cx="372.8" cy="274.5" r="0.4"/>
<circle class="st1" cx="375" cy="271.9" r="0.9"/>
<circle class="st1" cx="373.4" cy="264.4" r="0.6"/>
<circle class="st1" cx="371.3" cy="267.4" r="0.6"/>
<g>
	<polygon class="st0" points="253.5,293.3 247.8,290.2 248.3,289.1 253,291.6 255.7,286.5 260.9,289.2 263.6,284.2 268.8,286.8 
		271.5,281.8 276.7,284.4 279.2,279.9 280.3,280.5 277.2,286.1 272.1,283.4 269.3,288.5 264.2,285.8 261.4,290.9 256.3,288.2 	"/>
</g>
<g>
	<polygon class="st0" points="323.1,238.4 324.9,241.9 324.2,242.3 322.8,239.4 319.6,241 318,237.9 314.8,239.5 313.1,236.3 
		310,238 308.3,234.8 305.5,236.2 305.2,235.6 308.7,233.8 310.3,236.9 313.5,235.3 315.1,238.5 318.3,236.8 320,240 	"/>
</g>
<g>
	<polygon class="st0" points="379.1,239.1 375.6,244.5 374.6,243.9 377.4,239.5 372.6,236.5 375.6,231.6 370.8,228.6 373.8,223.7 
		369,220.7 372,215.9 367.7,213.2 368.4,212.1 373.7,215.5 370.7,220.3 375.5,223.3 372.5,228.2 377.3,231.2 374.3,236.1 	"/>
</g>
<g>
	<polygon class="st0" points="239.7,347.5 234.4,349.5 234,348.5 238.3,346.9 236.5,342.3 241.2,340.4 239.5,335.8 244.2,334 
		242.4,329.3 247.1,327.5 245.6,323.4 246.6,323 248.5,328.1 243.8,329.9 245.6,334.6 240.9,336.4 242.6,341.1 237.9,342.9 	"/>
</g>
<g>
	<polygon class="st0" points="304.6,383.5 299.9,381.7 300.2,380.8 304.1,382.3 305.7,378 310,379.6 311.6,375.4 315.9,377 
		317.5,372.8 321.8,374.4 323.3,370.6 324.2,370.9 322.4,375.6 318.1,374 316.5,378.3 312.2,376.7 310.6,380.9 306.3,379.3 	"/>
</g>
<path class="st2" d="M241.3,398.5c-0.6-0.6-1.1-1.3-1.6-2l-0.8,3.5h2L241.3,398.5z"/>
<path class="st2" d="M254.1,400h0.9c-0.2-0.3-0.3-0.6-0.5-0.9L254.1,400z"/>
<path class="st2" d="M270.7,397.6c1.1-3.3-0.1-7-3.1-8.9l-1.1-0.7l0.9-0.9c0.4-0.4,0.7-0.9,0.9-1.4c0.6-1.8-0.4-3.8-2.2-4.4
	c-0.5-0.2-1.1-0.2-1.7-0.1l-1.3,0.2l0.1-1.3c0.4-5.1-2.7-9.8-7.5-11.5c-5-1.7-10.3,0.3-13.1,4.7l-0.8,1.2l-0.9-1.1
	c-0.4-0.5-1-0.9-1.6-1.2c-1.8-0.6-3.8,0.4-4.4,2.2c-0.2,0.7-0.2,1.4,0,2.1l0.4,1.2l-1.2,0.1c-3,0.3-5.5,2.3-6.5,5.2
	c-1.4,4,0.8,8.4,4.8,9.8c2.1,0.7,4.5,0.5,6.4-0.7l1.3-0.8l0.2,1.5c0.5,2.8,2.4,5.2,5.1,6.1c3.1,1.1,6.6,0,8.6-2.6l1.3-1.7l0.4,2.1
	c0.3,1.2,0.8,2.4,1.6,3.3h11.8C269.9,399.3,270.4,398.5,270.7,397.6z M251.8,383.7c-0.2,0.5-0.7,0.8-1.3,0.6c-4-1.4-8.4,0.8-9.8,4.8
	c-0.2,0.5-0.7,0.8-1.3,0.6c-0.5-0.2-0.8-0.7-0.6-1.3c1.7-5.1,7.2-7.8,12.3-6.1C251.7,382.6,251.9,383.2,251.8,383.7z M253.5,372.1
	c-0.2,0.5-0.7,0.8-1.3,0.6c-1.8-0.6-3.8,0.4-4.4,2.2c-0.2,0.5-0.7,0.8-1.3,0.6c-0.5-0.2-0.8-0.7-0.6-1.3c1-2.9,4.1-4.4,6.9-3.4
	C253.4,371.1,253.6,371.6,253.5,372.1z M263.2,387.4c-2.4,0.1-4.7,1.3-6.1,3.3c-0.3,0.4-0.7,0.5-1.1,0.4c-0.1,0-0.2-0.1-0.2-0.1
	c-0.5-0.3-0.6-0.9-0.3-1.4c1.8-2.5,4.6-4.1,7.7-4.2c0.6,0,1,0.4,1,1C264.2,386.9,263.8,387.4,263.2,387.4z"/>
<path class="st2" d="M243.2,400c-0.1,0-0.2-0.1-0.2-0.1v0.1H243.2z"/>
<path class="st1" d="M251.1,382.4c-5.1-1.7-10.6,1-12.3,6.1c-0.2,0.5,0.1,1.1,0.6,1.3c0.5,0.2,1.1-0.1,1.3-0.6
	c1.4-4,5.7-6.2,9.8-4.8c0.5,0.2,1.1-0.1,1.3-0.6C251.9,383.2,251.7,382.6,251.1,382.4z"/>
<path class="st1" d="M263.2,385.4c-3.1,0.1-6,1.6-7.7,4.2c-0.3,0.5-0.2,1.1,0.3,1.4c0.1,0.1,0.2,0.1,0.2,0.1c0.4,0.1,0.9,0,1.1-0.4
	c1.4-2,3.7-3.2,6.1-3.3c0.6,0,1-0.5,1-1C264.2,385.8,263.7,385.4,263.2,385.4z"/>
<path class="st1" d="M252.8,370.9c-2.9-1-6,0.6-6.9,3.4c-0.2,0.5,0.1,1.1,0.6,1.3c0.5,0.2,1.1-0.1,1.3-0.6c0.6-1.8,2.6-2.8,4.4-2.2
	c0.5,0.2,1.1-0.1,1.3-0.6S253.4,371.1,252.8,370.9z"/>
<path class="st1" d="M269.6,387.6c0.3-0.4,0.5-0.9,0.7-1.3c1-2.9-0.6-6-3.4-6.9c-0.5-0.2-1-0.3-1.4-0.3c0-5.6-3.6-10.6-8.9-12.4
	c-5.4-1.8-11.3,0-14.7,4.5c-0.5-0.4-1-0.7-1.6-0.9c-2.9-1-6,0.6-6.9,3.4c-0.2,0.7-0.3,1.5-0.3,2.3c-3.3,0.7-6,3.1-7.1,6.4
	c-1.7,5.1,1,10.6,6.1,12.3c2,0.7,4.2,0.7,6.1,0L237,400h2l0.8-3.5c0.4,0.7,1,1.4,1.6,2l-0.3,1.5h2v-0.1c0.1,0,0.2,0.1,0.2,0.1h4.1
	h1.6h3h0.9h1.3l0.4-0.9c0.1,0.3,0.3,0.6,0.5,0.9h2.4c-0.8-0.9-1.4-2.1-1.6-3.3l-0.4-2.1l-1.3,1.7c-2,2.6-5.4,3.6-8.6,2.6
	c-2.7-0.9-4.7-3.2-5.1-6.1l-0.2-1.5l-1.3,0.8c-1.9,1.1-4.3,1.4-6.4,0.7c-4-1.4-6.2-5.7-4.8-9.8c1-2.8,3.5-4.9,6.5-5.2l1.2-0.1
	l-0.4-1.2c-0.2-0.7-0.2-1.4,0-2.1c0.6-1.8,2.6-2.8,4.4-2.2c0.6,0.2,1.2,0.6,1.6,1.2l0.9,1.1l0.8-1.2c2.7-4.5,8.1-6.4,13.1-4.7
	c4.9,1.6,8,6.4,7.5,11.5l-0.1,1.3l1.3-0.2c0.6-0.1,1.1,0,1.7,0.1c1.8,0.6,2.8,2.6,2.2,4.4c-0.2,0.5-0.5,1-0.9,1.4l-0.9,0.9l1.1,0.7
	c3,1.9,4.2,5.6,3.1,8.9c-0.3,0.9-0.8,1.7-1.4,2.4h2.4c0.3-0.6,0.6-1.2,0.8-1.8C273.9,394.3,272.7,390.2,269.6,387.6z"/>
<polygon class="st1" points="339.8,398.4 345.3,398.9 345.9,393.5 351.4,394.1 352.1,388.1 350.9,388 350.4,392.8 344.9,392.2 
	344.3,397.6 338.8,397.1 338.5,400 339.6,400 "/>
<g>
	<path class="st0" d="M273.4,180.3c0.3,3.1-1.3,6.2-4.2,7.6c-1.3,0.6-2.7,0.9-4.1,0.7l-1.7,1.7c2.2,0.6,4.6,0.4,6.7-0.7
		c4.2-2.1,6.2-6.8,5.1-11.1L273.4,180.3z"/>
	<path class="st0" d="M261.1,192.6l-2.1,2.1l-1.1,1.1l-2.9,2.9c0.6-0.2,1.2-0.4,1.7-0.6c0.6-0.3,1.1-0.6,1.6-1l0.9,2.6
		c0.2,0.5,0.8,0.8,1.3,0.6h0.1c0.5-0.2,0.7-0.8,0.5-1.2l-1.2-3.4c0.6-0.7,1.1-1.6,1.5-2.4l5.5,15l-8.3,4.1L252,202l-1.4,1.4
		l6.7,10.6c0.3,0.6,1,0.8,1.6,0.5l9.6-4.7c0.6-0.3,0.8-1,0.6-1.6l-6.2-17l-0.9,0.9L261.1,192.6z"/>
	<path class="st0" d="M255.8,202.6L255.8,202.6c0.6-0.3,0.7-1,0.4-1.4l-1.4-2.2l-1.4,1.4l1.2,1.8
		C254.7,202.7,255.3,202.8,255.8,202.6z"/>
</g>
<polygon class="st1" points="332.7,201.9 332.1,207.3 327.1,206.7 327,207.9 333.1,208.6 333.7,203.2 339.2,203.7 339.6,200 
	338.5,200 338.2,202.5 "/>
<path class="st2" d="M213.1,228.2c0.3-0.3,0.8-0.2,1,0.1c0.3,0.3,0.2,0.7,0,1l0,0c-0.9,0.8-1.7,1.3-2.3,1.7v0.3c1.3,1.1,3,2.5,4.8,4
	c0.4-0.2,1.3-0.7,2.4-1.7c0.3-0.3,0.8-0.2,1,0.1s0.2,0.7-0.1,1l0,0c-0.9,0.7-1.6,1.2-2.1,1.5c3.2,2.5,6.9,5.2,10.9,7.8
	c0.4,0.2,0.9,0.2,1.3-0.2c0.3-0.3,0.4-0.9,0.2-1.3c-3.4-5.6-7.1-10.6-10.1-14.4c-0.4,0.6-0.9,1.4-1.8,2.3l0,0c-0.3,0.3-0.7,0.3-1,0
	s-0.3-0.7-0.1-1c1.1-1.2,1.6-2.1,1.9-2.6c-2.7-3.4-4.5-5.4-4.6-5.5c-0.8-0.8-1.7-1.2-2.7-1.3l-0.1,9
	C212.2,229,212.7,228.6,213.1,228.2z"/>
<path class="st1" d="M214.1,229.3c0.3-0.3,0.3-0.7,0-1s-0.7-0.3-1-0.1c-0.5,0.4-0.9,0.7-1.3,1v1.8
	C212.4,230.6,213.2,230.1,214.1,229.3L214.1,229.3z"/>
<path class="st1" d="M231.6,242c-3.7-6.1-7.8-11.6-10.9-15.5l0,0c-2.8-3.6-4.8-5.8-4.9-5.8c-1-1.1-2.4-1.7-3.8-1.8v1.5
	c1,0.1,2,0.6,2.7,1.3c0,0,1.9,2.1,4.6,5.5c-0.3,0.5-0.8,1.4-1.9,2.6c-0.3,0.3-0.3,0.8,0.1,1c0.3,0.3,0.7,0.3,1,0l0,0
	c0.9-0.9,1.4-1.7,1.8-2.3c3,3.8,6.7,8.8,10.1,14.4c0.2,0.4,0.2,1-0.2,1.3c-0.3,0.3-0.9,0.4-1.3,0.2c-4-2.6-7.8-5.4-10.9-7.8
	c0.5-0.3,1.3-0.8,2.1-1.5l0,0c0.3-0.3,0.3-0.7,0.1-1c-0.3-0.3-0.7-0.4-1-0.1c-1.1,1-2,1.4-2.4,1.7c-1.9-1.5-3.5-2.9-4.8-4v1.9
	c3.8,3.3,9.7,7.9,16.3,12.2c1,0.6,2.3,0.4,3.1-0.4C232,244.2,232.2,243,231.6,242z"/>
<polygon class="st1" points="202,292.6 202.3,284 211,284.2 211.2,275.6 219.9,275.8 220.2,266.3 218.4,266.3 218.1,273.9 
	209.4,273.7 209.2,282.3 200.5,282.1 200.2,290.7 200,290.7 200,292.6 "/>
<path class="st1" d="M399.7,230.4c0.1-0.1,0.2-0.1,0.3-0.2v-2.9c-1,0.7-1.8,1.2-2.3,1.4c-2.4-2-3.7-3.3-3.8-3.3
	c-2.3-2.3-2.8-5.9-1.4-8.7l0.1-0.1c0.3-0.6,0.8-1.2,1.3-1.7s1.1-1,1.8-1.3c0,0,0.1,0,0.1-0.1c1.3-0.7,2.8-0.9,4.2-0.8v-2.4
	c-1.3-0.1-2.5,0-3.7,0.4c0-0.3-0.1-0.5-0.1-0.5c-0.7-3.1-1.8-3.9-2.2-4.1c-0.4-0.2-0.8-0.2-1.1,0c-0.3,0.1-1.1,0.7-1.8,2.6
	c-1.8-0.9-2.8-0.7-3.1-0.6c-0.4,0.1-0.7,0.4-0.8,0.8c-0.1,0.3-0.3,1.3,0.6,3.1c-1.9,0.7-2.5,1.5-2.6,1.8c-0.2,0.4-0.2,0.8,0,1.1
	s1,1.5,4.2,2.2c0,0,0.2,0,0.5,0.1c-1.1,3.4-0.2,7.2,2.5,9.9c0.1,0.1,3,2.7,7.7,6.7v-3.1C399.9,230.6,399.8,230.5,399.7,230.4z
	 M389.8,214.8c-0.6-0.1-1.1-0.3-1.4-0.4c0.4-0.1,0.8-0.3,1.4-0.4c0.4-0.1,0.7-0.4,0.8-0.7c0.1-0.4,0.1-0.8-0.1-1.1
	c-0.3-0.5-0.6-1-0.7-1.3c0.4,0.2,0.8,0.4,1.3,0.7c0.3,0.2,0.7,0.2,1.1,0.1c0.4-0.1,0.6-0.5,0.7-0.8c0.1-0.6,0.3-1.1,0.4-1.4
	c0.1,0.4,0.3,0.8,0.4,1.4c0,0,0.1,0.5,0.2,1.1c-0.6,0.4-1.2,0.8-1.7,1.4c-0.5,0.5-1,1.1-1.4,1.7
	C390.3,214.8,389.8,214.8,389.8,214.8z"/>
<polygon class="st1" points="391.3,299.1 383.4,298.8 383.4,300.7 393.1,301 393.3,292.4 400,292.6 400,290.7 391.5,290.5 "/>
<path class="st2" d="M398.3,320.7c0.3,0.5,0.2,1.1-0.3,1.4c-0.2,0.1-0.4,0.2-0.5,0.2c-0.3,0-0.6-0.2-0.8-0.5c-0.5-0.7-0.8-1.5-1-2.1
	c-1.5,0.8-3.3,2-5.4,3.7c0,0-1.8,1.7-3.2,4.1l0,0c0,0,0.3,1.4,0.8,2.3c0.3,0.5,0.1,1.1-0.3,1.4c-0.2,0.1-0.3,0.1-0.5,0.1
	c-0.3,0-0.7-0.2-0.9-0.5c-0.1-0.2-0.2-0.4-0.3-0.6c0,0.1-0.1,0.2-0.1,0.3c-0.1,0.3-0.1,0.6-0.2,0.9c-0.1,1.6,0.4,3.1,1.5,4.2
	s2.6,1.7,4.2,1.5c0.3,0,0.6-0.1,0.9-0.2c1.3-0.3,2.5-0.9,3.5-1.5c-0.2-0.1-0.4-0.2-0.6-0.4c-0.5-0.3-0.6-0.9-0.2-1.4
	c0.3-0.5,0.9-0.6,1.4-0.2s1,0.6,1.3,0.7c1.1-0.9,1.9-1.7,1.9-1.7c0.2-0.2,0.4-0.5,0.6-0.7v-13.6c-0.7,0-1.6,0.2-2.5,0.5
	C397.6,319.4,397.8,320.1,398.3,320.7z M392.6,329.2c-0.2,0.2-0.4,0.3-0.7,0.3c-0.3,0-0.5-0.1-0.7-0.3c-0.9-1-1.3-1.8-1.3-1.9
	c-0.2-0.5,0-1.1,0.5-1.3c0.5-0.2,1.1,0,1.3,0.5c0,0,0.3,0.7,1,1.4C393,328.2,393,328.9,392.6,329.2z M399.3,330.6
	c-0.2,0.2-0.5,0.4-0.8,0.4c-0.2,0-0.4-0.1-0.6-0.2c-1.2-1-1.7-1.5-1.8-1.6c-0.4-0.4-0.3-1.1,0.1-1.4c0.4-0.4,1-0.3,1.4,0.1
	c0,0,0.4,0.5,1.5,1.3C399.5,329.6,399.6,330.2,399.3,330.6z"/>
<path class="st1" d="M399.4,332.6c0,0-0.7,0.8-1.9,1.7c-0.3-0.1-0.8-0.4-1.3-0.7c-0.5-0.3-1.1-0.2-1.4,0.2c-0.3,0.5-0.2,1.1,0.2,1.4
	c0.2,0.1,0.4,0.3,0.6,0.4c-1.1,0.6-2.3,1.2-3.5,1.5c-0.3,0.1-0.6,0.1-0.9,0.2c-1.6,0.1-3.1-0.4-4.2-1.5s-1.7-2.6-1.5-4.2
	c0-0.3,0.1-0.6,0.2-0.9c0-0.1,0.1-0.2,0.1-0.3c0.1,0.2,0.2,0.4,0.3,0.6c0.2,0.3,0.5,0.5,0.9,0.5c0.2,0,0.4,0,0.5-0.1
	c0.5-0.3,0.6-0.9,0.3-1.4c-0.6-0.9-0.8-2.3-0.8-2.3l0,0c1.4-2.4,3.2-4.1,3.2-4.1c2.1-1.8,3.9-3,5.4-3.7c0.2,0.6,0.5,1.3,1,2.1
	c0.2,0.3,0.5,0.5,0.8,0.5c0.2,0,0.4-0.1,0.5-0.2c0.5-0.3,0.6-0.9,0.3-1.4c-0.4-0.6-0.7-1.3-0.8-1.8c1-0.3,1.8-0.5,2.5-0.5v-2
	c-1.2,0.1-2.5,0.4-4.1,1l0,0c-2,0.8-4.3,2.3-6.9,4.5c-0.2,0.2-4,3.7-5.1,8.3l0,0l0,0l0,0l0,0c-0.1,0.4-0.2,0.7-0.2,1.1
	c-0.2,2.2,0.6,4.3,2.1,5.8c1.4,1.4,3.2,2.1,5.1,2.1c0.2,0,0.5,0,0.7,0c0.4,0,0.7-0.1,1.1-0.2l0,0l0,0l0,0l0,0c3.2-0.8,6-2.9,7.4-4.2
	v-3C399.8,332.2,399.6,332.4,399.4,332.6z"/>
<path class="st1" d="M397.6,327.9c-0.4-0.4-1-0.5-1.4-0.1s-0.5,1-0.1,1.4c0.1,0.1,0.5,0.6,1.8,1.6c0.2,0.1,0.4,0.2,0.6,0.2
	c0.3,0,0.6-0.1,0.8-0.4c0.3-0.4,0.3-1.1-0.2-1.4C398.1,328.4,397.6,327.9,397.6,327.9z"/>
<path class="st1" d="M391.7,326.4c-0.2-0.5-0.8-0.7-1.3-0.5s-0.7,0.8-0.5,1.3c0,0,0.4,0.9,1.3,1.9c0.2,0.2,0.5,0.3,0.7,0.3
	s0.5-0.1,0.7-0.3c0.4-0.4,0.4-1,0.1-1.4C392,327.1,391.7,326.4,391.7,326.4z"/>
<polygon class="st1" points="399.2,365.4 398.7,358.7 392,359.1 391.5,352.4 384.9,352.8 384.5,346.7 383.1,346.8 383.5,354.3 
	390.2,353.9 390.7,360.6 397.4,360.2 397.8,367 400,366.8 400,365.4 "/>
<path class="st1" d="M200.9,334c9-10.6,4.6-15.5,4-16c-0.3-0.3-1.9-1.8-4.9-1.6v2c2.4-0.2,3.4,0.9,3.4,0.9l0.1,0.1
	c0,0,3.7,3.6-3.5,12.5v2.9C200.5,334.4,200.9,334,200.9,334z"/>
<polygon class="st1" points="205,373.3 212.4,372.8 212.3,371.4 206.3,371.8 205.8,365 200,365.4 200,366.8 204.5,366.6 "/>
</svg>
